{
	"asset":{
		"generator":"Khronos glTF Blender I/O v5.0.21",
		"version":"2.0"
	},
	"scene":0,
	"scenes":[
		{
			"name":"Scene",
			"nodes":[
				0,
				1,
				2
			]
		}
	],
	"nodes":[
		{
			"mesh":0,
			"name":"mk_body",
			"scale":[
				2.9121994972229004,
				2.9121994972229004,
				2.9121994972229004
			],
			"translation":[
				0,
				-1.155008316040039,
				0
			]
		},
		{
			"mesh":1,
			"name":"SimpleBaked_Mesh",
			"rotation":[
				0,
				-0.7071068286895752,
				0,
				0.7071067094802856
			],
			"scale":[
				2.481840133666992,
				2.481839895248413,
				2.0324323177337646
			],
			"translation":[
				0,
				-1.155008316040039,
				0
			]
		},
		{
			"mesh":2,
			"name":"Atlas_01",
			"scale":[
				2.9121994972229004,
				2.9121994972229004,
				2.9121994972229004
			],
			"translation":[
				0,
				-1.155008316040039,
				0
			]
		}
	],
	"materials":[
		{
			"doubleSided":true,
			"name":"Body_Paint",
			"normalTexture":{
				"index":0
			},
			"occlusionTexture":{
				"index":1,
				"texCoord":1
			},
			"pbrMetallicRoughness":{
				"baseColorFactor":[
					0.8156629800796509,
					0.8268115520477295,
					0.20447054505348206,
					1
				],
				"metallicFactor":0.4000000059604645,
				"roughnessFactor":0.10000000149011612
			}
		},
		{
			"doubleSided":true,
			"name":"SimpleBaked_Material",
			"normalTexture":{
				"index":2,
				"texCoord":2
			},
			"occlusionTexture":{
				"index":3,
				"texCoord":1
			},
			"pbrMetallicRoughness":{
				"baseColorTexture":{
					"index":4
				},
				"metallicRoughnessTexture":{
					"index":3
				}
			}
		},
		{
			"doubleSided":true,
			"name":"ColorAtlas_",
			"occlusionTexture":{
				"index":5,
				"texCoord":1
			},
			"pbrMetallicRoughness":{
				"baseColorTexture":{
					"index":6
				},
				"metallicRoughnessTexture":{
					"index":5,
					"texCoord":2
				}
			}
		}
	],
	"meshes":[
		{
			"name":"Plane.011",
			"primitives":[
				{
					"attributes":{
						"POSITION":0,
						"NORMAL":1,
						"TEXCOORD_0":2,
						"TEXCOORD_1":3,
						"TEXCOORD_2":4
					},
					"indices":5,
					"material":0
				}
			]
		},
		{
			"name":"Mesh.238",
			"primitives":[
				{
					"attributes":{
						"POSITION":6,
						"NORMAL":7,
						"TEXCOORD_0":8,
						"TEXCOORD_1":9,
						"TEXCOORD_2":10
					},
					"indices":11,
					"material":1
				}
			]
		},
		{
			"name":"Mesh.239",
			"primitives":[
				{
					"attributes":{
						"POSITION":12,
						"NORMAL":13,
						"TEXCOORD_0":14,
						"TEXCOORD_1":15,
						"TEXCOORD_2":16
					},
					"indices":17,
					"material":2
				}
			]
		}
	],
	"textures":[
		{
			"sampler":0,
			"source":0
		},
		{
			"sampler":0,
			"source":1
		},
		{
			"sampler":0,
			"source":2
		},
		{
			"sampler":0,
			"source":3
		},
		{
			"sampler":0,
			"source":4
		},
		{
			"sampler":0,
			"source":5
		},
		{
			"sampler":0,
			"source":6
		}
	],
	"images":[
		{
			"mimeType":"image/png",
			"name":"texture_holder_temp_Aggregated_Material",
			"uri":"texture_holder_temp_Aggregated_Material.png"
		},
		{
			"mimeType":"image/png",
			"name":"mk_body_lightmap",
			"uri":"mk_body_lightmap.png"
		},
		{
			"mimeType":"image/png",
			"name":"SimpleBaked_Normal",
			"uri":"SimpleBaked_Normal.png"
		},
		{
			"mimeType":"image/png",
			"name":"SimpleBaked_Mesh_lightmap-SimpleBaked_Mesh_Lightmap-TexturedMesh_Bake1_PBR_Roughness-TexturedMesh_Bake1_PBR_Metalness",
			"uri":"SimpleBaked_Mesh_lightmap-SimpleBaked_Mesh_Lightmap-TexturedMesh_Bake1_PBR_Roughness-TexturedMesh_Bake1_PBR_Metalness.png"
		},
		{
			"mimeType":"image/png",
			"name":"TexturedMesh_Bake1_PBR_Diffuse",
			"uri":"TexturedMesh_Bake1_PBR_Diffuse.png"
		},
		{
			"mimeType":"image/png",
			"name":"Atlas_01_lightmap-Atlas_01_Lightmap-ColorSwatch-ORM",
			"uri":"Atlas_01_lightmap-Atlas_01_Lightmap-ColorSwatch-ORM.png"
		},
		{
			"mimeType":"image/png",
			"name":"Atlas_color",
			"uri":"Atlas_color.png"
		}
	],
	"accessors":[
		{
			"bufferView":0,
			"componentType":5126,
			"count":15414,
			"max":[
				0.9790406823158264,
				1.5477045774459839,
				1.823826789855957
			],
			"min":[
				-0.9790406823158264,
				0.25729694962501526,
				-1.8520952463150024
			],
			"type":"VEC3"
		},
		{
			"bufferView":1,
			"componentType":5126,
			"count":15414,
			"type":"VEC3"
		},
		{
			"bufferView":2,
			"componentType":5126,
			"count":15414,
			"type":"VEC2"
		},
		{
			"bufferView":3,
			"componentType":5126,
			"count":15414,
			"type":"VEC2"
		},
		{
			"bufferView":4,
			"componentType":5126,
			"count":15414,
			"type":"VEC2"
		},
		{
			"bufferView":5,
			"componentType":5123,
			"count":58341,
			"type":"SCALAR"
		},
		{
			"bufferView":6,
			"componentType":5126,
			"count":4655,
			"max":[
				2.1412854194641113,
				1.691839575767517,
				1.188593864440918
			],
			"min":[
				-2.1343255043029785,
				-0.0039018988609313965,
				-1.1885943412780762
			],
			"type":"VEC3"
		},
		{
			"bufferView":7,
			"componentType":5126,
			"count":4655,
			"type":"VEC3"
		},
		{
			"bufferView":8,
			"componentType":5126,
			"count":4655,
			"type":"VEC2"
		},
		{
			"bufferView":9,
			"componentType":5126,
			"count":4655,
			"type":"VEC2"
		},
		{
			"bufferView":10,
			"componentType":5126,
			"count":4655,
			"type":"VEC2"
		},
		{
			"bufferView":11,
			"componentType":5123,
			"count":15432,
			"type":"SCALAR"
		},
		{
			"bufferView":12,
			"componentType":5126,
			"count":30422,
			"max":[
				0.9715176820755005,
				1.4813532829284668,
				1.821062445640564
			],
			"min":[
				-0.9715176820755005,
				0.07483505457639694,
				-1.8587045669555664
			],
			"type":"VEC3"
		},
		{
			"bufferView":13,
			"componentType":5126,
			"count":30422,
			"type":"VEC3"
		},
		{
			"bufferView":14,
			"componentType":5126,
			"count":30422,
			"type":"VEC2"
		},
		{
			"bufferView":15,
			"componentType":5126,
			"count":30422,
			"type":"VEC2"
		},
		{
			"bufferView":16,
			"componentType":5126,
			"count":30422,
			"type":"VEC2"
		},
		{
			"bufferView":17,
			"componentType":5123,
			"count":69057,
			"type":"SCALAR"
		}
	],
	"bufferViews":[
		{
			"buffer":0,
			"byteLength":184968,
			"byteOffset":0,
			"target":34962
		},
		{
			"buffer":0,
			"byteLength":184968,
			"byteOffset":184968,
			"target":34962
		},
		{
			"buffer":0,
			"byteLength":123312,
			"byteOffset":369936,
			"target":34962
		},
		{
			"buffer":0,
			"byteLength":123312,
			"byteOffset":493248,
			"target":34962
		},
		{
			"buffer":0,
			"byteLength":123312,
			"byteOffset":616560,
			"target":34962
		},
		{
			"buffer":0,
			"byteLength":116682,
			"byteOffset":739872,
			"target":34963
		},
		{
			"buffer":0,
			"byteLength":55860,
			"byteOffset":856556,
			"target":34962
		},
		{
			"buffer":0,
			"byteLength":55860,
			"byteOffset":912416,
			"target":34962
		},
		{
			"buffer":0,
			"byteLength":37240,
			"byteOffset":968276,
			"target":34962
		},
		{
			"buffer":0,
			"byteLength":37240,
			"byteOffset":1005516,
			"target":34962
		},
		{
			"buffer":0,
			"byteLength":37240,
			"byteOffset":1042756,
			"target":34962
		},
		{
			"buffer":0,
			"byteLength":30864,
			"byteOffset":1079996,
			"target":34963
		},
		{
			"buffer":0,
			"byteLength":365064,
			"byteOffset":1110860,
			"target":34962
		},
		{
			"buffer":0,
			"byteLength":365064,
			"byteOffset":1475924,
			"target":34962
		},
		{
			"buffer":0,
			"byteLength":243376,
			"byteOffset":1840988,
			"target":34962
		},
		{
			"buffer":0,
			"byteLength":243376,
			"byteOffset":2084364,
			"target":34962
		},
		{
			"buffer":0,
			"byteLength":243376,
			"byteOffset":2327740,
			"target":34962
		},
		{
			"buffer":0,
			"byteLength":138114,
			"byteOffset":2571116,
			"target":34963
		}
	],
	"samplers":[
		{
			"magFilter":9729,
			"minFilter":9987
		}
	],
	"buffers":[
		{
			"byteLength":2709232,
			"uri":"byd.bin"
		}
	]
}
