{
	"asset":{
		"generator":"Khronos glTF Blender I/O v5.0.21",
		"version":"2.0"
	},
	"scene":0,
	"scenes":[
		{
			"name":"Scene",
			"nodes":[
				0,
				1,
				2,
				3,
				4,
				5
			]
		}
	],
	"nodes":[
		{
			"mesh":0,
			"name":"Body_1",
			"scale":[
				2.9121994972229004,
				2.9121994972229004,
				2.9121994972229004
			],
			"translation":[
				0,
				-1.155008316040039,
				0
			]
		},
		{
			"mesh":1,
			"name":"Textured",
			"rotation":[
				0,
				-0.7071068286895752,
				0,
				0.7071067094802856
			],
			"scale":[
				2.481840133666992,
				2.481839895248413,
				2.0324323177337646
			],
			"translation":[
				0,
				-1.155008316040039,
				0
			]
		},
		{
			"mesh":2,
			"name":"Atlas_01",
			"scale":[
				2.9121994972229004,
				2.9121994972229004,
				2.9121994972229004
			],
			"translation":[
				0,
				-1.155008316040039,
				0
			]
		},
		{
			"mesh":3,
			"name":"Glass",
			"scale":[
				2.9121994972229004,
				2.9121994972229004,
				2.9121994972229004
			],
			"translation":[
				0,
				-1.155008316040039,
				0
			]
		},
		{
			"mesh":4,
			"name":"Body_2",
			"scale":[
				2.872602701187134,
				2.872602701187134,
				2.872602701187134
			],
			"translation":[
				0,
				-1.1079678535461426,
				0
			]
		},
		{
			"mesh":5,
			"name":"InteriorMesh",
			"scale":[
				2.872602701187134,
				2.872602701187134,
				2.872602701187134
			],
			"translation":[
				0,
				-1.1079678535461426,
				0
			]
		}
	],
	"materials":[
		{
			"doubleSided":true,
			"name":"Body_Paint",
			"normalTexture":{
				"index":0
			},
			"occlusionTexture":{
				"index":1,
				"texCoord":1
			},
			"pbrMetallicRoughness":{
				"baseColorFactor":[
					0.8156629800796509,
					0.8268115520477295,
					0.20447054505348206,
					1
				],
				"metallicFactor":0.20000000298023224,
				"roughnessFactor":0.10000000149011612
			}
		},
		{
			"doubleSided":true,
			"name":"SimpleBaked_Material",
			"normalTexture":{
				"index":2,
				"texCoord":2
			},
			"occlusionTexture":{
				"index":3,
				"texCoord":1
			},
			"pbrMetallicRoughness":{
				"baseColorTexture":{
					"index":4
				},
				"metallicRoughnessTexture":{
					"index":3
				}
			}
		},
		{
			"doubleSided":true,
			"name":"ColorAtlas_",
			"occlusionTexture":{
				"index":5,
				"texCoord":1
			},
			"pbrMetallicRoughness":{
				"baseColorTexture":{
					"index":6
				},
				"metallicRoughnessTexture":{
					"index":5,
					"texCoord":2
				}
			}
		},
		{
			"alphaMode":"BLEND",
			"doubleSided":true,
			"name":"Material",
			"pbrMetallicRoughness":{
				"baseColorFactor":[
					0,
					0,
					0,
					0.699999988079071
				],
				"metallicFactor":0.4000000059604645,
				"roughnessFactor":0
			}
		},
		{
			"doubleSided":true,
			"name":"Atlasflow_01.003",
			"pbrMetallicRoughness":{
				"baseColorTexture":{
					"index":7
				},
				"metallicRoughnessTexture":{
					"index":8,
					"texCoord":1
				}
			}
		},
		{
			"doubleSided":true,
			"name":"mk_plastic_skin_Aggregated_Material",
			"normalTexture":{
				"index":9
			},
			"pbrMetallicRoughness":{
				"baseColorTexture":{
					"index":10
				},
				"metallicRoughnessTexture":{
					"index":11
				}
			}
		}
	],
	"meshes":[
		{
			"name":"Plane.011",
			"primitives":[
				{
					"attributes":{
						"POSITION":0,
						"NORMAL":1,
						"TEXCOORD_0":2,
						"TEXCOORD_1":3,
						"TEXCOORD_2":4
					},
					"indices":5,
					"material":0
				}
			]
		},
		{
			"name":"Mesh.238",
			"primitives":[
				{
					"attributes":{
						"POSITION":6,
						"NORMAL":7,
						"TEXCOORD_0":8,
						"TEXCOORD_1":9,
						"TEXCOORD_2":10
					},
					"indices":11,
					"material":1
				}
			]
		},
		{
			"name":"Mesh.239",
			"primitives":[
				{
					"attributes":{
						"POSITION":12,
						"NORMAL":13,
						"TEXCOORD_0":14,
						"TEXCOORD_1":15,
						"TEXCOORD_2":16
					},
					"indices":17,
					"material":2
				}
			]
		},
		{
			"name":"Mesh.007",
			"primitives":[
				{
					"attributes":{
						"POSITION":18,
						"NORMAL":19,
						"TEXCOORD_0":20,
						"TEXCOORD_1":21,
						"TEXCOORD_2":22
					},
					"indices":23,
					"material":3
				}
			]
		},
		{
			"name":"Plane.021",
			"primitives":[
				{
					"attributes":{
						"POSITION":24,
						"NORMAL":25,
						"TEXCOORD_0":26,
						"TEXCOORD_1":27,
						"COLOR_0":28,
						"COLOR_1":29,
						"COLOR_2":30
					},
					"indices":31,
					"material":4
				}
			]
		},
		{
			"name":"Plane.054",
			"primitives":[
				{
					"attributes":{
						"POSITION":32,
						"NORMAL":33,
						"TEXCOORD_0":34,
						"TEXCOORD_1":35,
						"COLOR_0":36,
						"COLOR_1":37,
						"COLOR_2":38
					},
					"indices":39,
					"material":5
				}
			]
		}
	],
	"textures":[
		{
			"sampler":0,
			"source":0
		},
		{
			"sampler":0,
			"source":1
		},
		{
			"sampler":0,
			"source":2
		},
		{
			"sampler":0,
			"source":3
		},
		{
			"sampler":0,
			"source":4
		},
		{
			"sampler":0,
			"source":5
		},
		{
			"sampler":0,
			"source":6
		},
		{
			"sampler":0,
			"source":7
		},
		{
			"sampler":0,
			"source":8
		},
		{
			"sampler":0,
			"source":9
		},
		{
			"sampler":0,
			"source":10
		},
		{
			"sampler":0,
			"source":11
		}
	],
	"images":[
		{
			"mimeType":"image/jpeg",
			"name":"Flakes_medium_normal",
			"uri":"Flakes_medium_normal.jpg"
		},
		{
			"mimeType":"image/png",
			"name":"mk_body_lightmap",
			"uri":"mk_body_lightmap.png"
		},
		{
			"mimeType":"image/png",
			"name":"SimpleBaked_Normal",
			"uri":"SimpleBaked_Normal.png"
		},
		{
			"mimeType":"image/png",
			"name":"SimpleBaked_Mesh_lightmap-SimpleBaked_Mesh_Lightmap-TexturedMesh_Bake1_PBR_Roughness-TexturedMesh_Bake1_PBR_Metalness",
			"uri":"SimpleBaked_Mesh_lightmap-SimpleBaked_Mesh_Lightmap-TexturedMesh_Bake1_PBR_Roughness-TexturedMesh_Bake1_PBR_Metalness.png"
		},
		{
			"mimeType":"image/png",
			"name":"TexturedMesh_Bake1_PBR_Diffuse",
			"uri":"TexturedMesh_Bake1_PBR_Diffuse.png"
		},
		{
			"mimeType":"image/png",
			"name":"Atlas_01_lightmap-Atlas_01_Lightmap-ColorSwatch-ORM",
			"uri":"Atlas_01_lightmap-Atlas_01_Lightmap-ColorSwatch-ORM.png"
		},
		{
			"mimeType":"image/png",
			"name":"Atlas_color",
			"uri":"Atlas_color.png"
		},
		{
			"mimeType":"image/png",
			"name":"AtlasColorTexture",
			"uri":"AtlasColorTexture.png"
		},
		{
			"mimeType":"image/png",
			"name":"AtlasGrayTexture",
			"uri":"AtlasGrayTexture.png"
		},
		{
			"mimeType":"image/png",
			"name":"mk_plastic_skin_Aggregated_Material_normal",
			"uri":"mk_plastic_skin_Aggregated_Material_normal.png"
		},
		{
			"mimeType":"image/png",
			"name":"mk_plastic_skin_Aggregated_Material_diffuse",
			"uri":"mk_plastic_skin_Aggregated_Material_diffuse.png"
		},
		{
			"mimeType":"image/png",
			"name":"mk_plastic_skin_Aggregated_Material_metallic-mk_plastic_skin_Aggregated_Material_roughness",
			"uri":"mk_plastic_skin_Aggregated_Material_metallic-mk_plastic_skin_Aggregated_Material_roughness.png"
		}
	],
	"accessors":[
		{
			"bufferView":0,
			"componentType":5126,
			"count":15414,
			"max":[
				0.9790406823158264,
				1.5477045774459839,
				1.823826789855957
			],
			"min":[
				-0.9790406823158264,
				0.25729694962501526,
				-1.8520952463150024
			],
			"type":"VEC3"
		},
		{
			"bufferView":1,
			"componentType":5126,
			"count":15414,
			"type":"VEC3"
		},
		{
			"bufferView":2,
			"componentType":5126,
			"count":15414,
			"type":"VEC2"
		},
		{
			"bufferView":3,
			"componentType":5126,
			"count":15414,
			"type":"VEC2"
		},
		{
			"bufferView":4,
			"componentType":5126,
			"count":15414,
			"type":"VEC2"
		},
		{
			"bufferView":5,
			"componentType":5123,
			"count":58341,
			"type":"SCALAR"
		},
		{
			"bufferView":6,
			"componentType":5126,
			"count":4655,
			"max":[
				2.1412854194641113,
				1.691839575767517,
				1.188593864440918
			],
			"min":[
				-2.1343255043029785,
				-0.0039018988609313965,
				-1.1885943412780762
			],
			"type":"VEC3"
		},
		{
			"bufferView":7,
			"componentType":5126,
			"count":4655,
			"type":"VEC3"
		},
		{
			"bufferView":8,
			"componentType":5126,
			"count":4655,
			"type":"VEC2"
		},
		{
			"bufferView":9,
			"componentType":5126,
			"count":4655,
			"type":"VEC2"
		},
		{
			"bufferView":10,
			"componentType":5126,
			"count":4655,
			"type":"VEC2"
		},
		{
			"bufferView":11,
			"componentType":5123,
			"count":15432,
			"type":"SCALAR"
		},
		{
			"bufferView":12,
			"componentType":5126,
			"count":29740,
			"max":[
				0.9715176820755005,
				1.4813532829284668,
				1.821062445640564
			],
			"min":[
				-0.9715176820755005,
				0.07483505457639694,
				-1.8587045669555664
			],
			"type":"VEC3"
		},
		{
			"bufferView":13,
			"componentType":5126,
			"count":29740,
			"type":"VEC3"
		},
		{
			"bufferView":14,
			"componentType":5126,
			"count":29740,
			"type":"VEC2"
		},
		{
			"bufferView":15,
			"componentType":5126,
			"count":29740,
			"type":"VEC2"
		},
		{
			"bufferView":16,
			"componentType":5126,
			"count":29740,
			"type":"VEC2"
		},
		{
			"bufferView":17,
			"componentType":5123,
			"count":66783,
			"type":"SCALAR"
		},
		{
			"bufferView":18,
			"componentType":5126,
			"count":550,
			"max":[
				0.754496693611145,
				1.4717226028442383,
				1.1281771659851074
			],
			"min":[
				-0.7545647621154785,
				1.0043087005615234,
				-1.7156198024749756
			],
			"type":"VEC3"
		},
		{
			"bufferView":19,
			"componentType":5126,
			"count":550,
			"type":"VEC3"
		},
		{
			"bufferView":20,
			"componentType":5126,
			"count":550,
			"type":"VEC2"
		},
		{
			"bufferView":21,
			"componentType":5126,
			"count":550,
			"type":"VEC2"
		},
		{
			"bufferView":22,
			"componentType":5126,
			"count":550,
			"type":"VEC2"
		},
		{
			"bufferView":23,
			"componentType":5123,
			"count":2274,
			"type":"SCALAR"
		},
		{
			"bufferView":24,
			"componentType":5126,
			"count":13239,
			"max":[
				0.8547908067703247,
				1.5016084909439087,
				0.7632436156272888
			],
			"min":[
				-0.8547908067703247,
				0.19101226329803467,
				-1.7979727983474731
			],
			"type":"VEC3"
		},
		{
			"bufferView":25,
			"componentType":5126,
			"count":13239,
			"type":"VEC3"
		},
		{
			"bufferView":26,
			"componentType":5126,
			"count":13239,
			"type":"VEC2"
		},
		{
			"bufferView":27,
			"componentType":5126,
			"count":13239,
			"type":"VEC2"
		},
		{
			"bufferView":28,
			"componentType":5121,
			"count":13239,
			"normalized":true,
			"type":"VEC4"
		},
		{
			"bufferView":29,
			"componentType":5123,
			"count":13239,
			"normalized":true,
			"type":"VEC4"
		},
		{
			"bufferView":30,
			"componentType":5123,
			"count":13239,
			"normalized":true,
			"type":"VEC4"
		},
		{
			"bufferView":31,
			"componentType":5123,
			"count":37863,
			"type":"SCALAR"
		},
		{
			"bufferView":32,
			"componentType":5126,
			"count":46405,
			"max":[
				0.8158662915229797,
				1.4792430400848389,
				1.1645195484161377
			],
			"min":[
				-0.8158662915229797,
				0.29228535294532776,
				-1.7554676532745361
			],
			"type":"VEC3"
		},
		{
			"bufferView":33,
			"componentType":5126,
			"count":46405,
			"type":"VEC3"
		},
		{
			"bufferView":34,
			"componentType":5126,
			"count":46405,
			"type":"VEC2"
		},
		{
			"bufferView":35,
			"componentType":5126,
			"count":46405,
			"type":"VEC2"
		},
		{
			"bufferView":36,
			"componentType":5121,
			"count":46405,
			"normalized":true,
			"type":"VEC4"
		},
		{
			"bufferView":37,
			"componentType":5123,
			"count":46405,
			"normalized":true,
			"type":"VEC4"
		},
		{
			"bufferView":38,
			"componentType":5123,
			"count":46405,
			"normalized":true,
			"type":"VEC4"
		},
		{
			"bufferView":39,
			"componentType":5123,
			"count":152763,
			"type":"SCALAR"
		}
	],
	"bufferViews":[
		{
			"buffer":0,
			"byteLength":184968,
			"byteOffset":0,
			"target":34962
		},
		{
			"buffer":0,
			"byteLength":184968,
			"byteOffset":184968,
			"target":34962
		},
		{
			"buffer":0,
			"byteLength":123312,
			"byteOffset":369936,
			"target":34962
		},
		{
			"buffer":0,
			"byteLength":123312,
			"byteOffset":493248,
			"target":34962
		},
		{
			"buffer":0,
			"byteLength":123312,
			"byteOffset":616560,
			"target":34962
		},
		{
			"buffer":0,
			"byteLength":116682,
			"byteOffset":739872,
			"target":34963
		},
		{
			"buffer":0,
			"byteLength":55860,
			"byteOffset":856556,
			"target":34962
		},
		{
			"buffer":0,
			"byteLength":55860,
			"byteOffset":912416,
			"target":34962
		},
		{
			"buffer":0,
			"byteLength":37240,
			"byteOffset":968276,
			"target":34962
		},
		{
			"buffer":0,
			"byteLength":37240,
			"byteOffset":1005516,
			"target":34962
		},
		{
			"buffer":0,
			"byteLength":37240,
			"byteOffset":1042756,
			"target":34962
		},
		{
			"buffer":0,
			"byteLength":30864,
			"byteOffset":1079996,
			"target":34963
		},
		{
			"buffer":0,
			"byteLength":356880,
			"byteOffset":1110860,
			"target":34962
		},
		{
			"buffer":0,
			"byteLength":356880,
			"byteOffset":1467740,
			"target":34962
		},
		{
			"buffer":0,
			"byteLength":237920,
			"byteOffset":1824620,
			"target":34962
		},
		{
			"buffer":0,
			"byteLength":237920,
			"byteOffset":2062540,
			"target":34962
		},
		{
			"buffer":0,
			"byteLength":237920,
			"byteOffset":2300460,
			"target":34962
		},
		{
			"buffer":0,
			"byteLength":133566,
			"byteOffset":2538380,
			"target":34963
		},
		{
			"buffer":0,
			"byteLength":6600,
			"byteOffset":2671948,
			"target":34962
		},
		{
			"buffer":0,
			"byteLength":6600,
			"byteOffset":2678548,
			"target":34962
		},
		{
			"buffer":0,
			"byteLength":4400,
			"byteOffset":2685148,
			"target":34962
		},
		{
			"buffer":0,
			"byteLength":4400,
			"byteOffset":2689548,
			"target":34962
		},
		{
			"buffer":0,
			"byteLength":4400,
			"byteOffset":2693948,
			"target":34962
		},
		{
			"buffer":0,
			"byteLength":4548,
			"byteOffset":2698348,
			"target":34963
		},
		{
			"buffer":0,
			"byteLength":158868,
			"byteOffset":2702896,
			"target":34962
		},
		{
			"buffer":0,
			"byteLength":158868,
			"byteOffset":2861764,
			"target":34962
		},
		{
			"buffer":0,
			"byteLength":105912,
			"byteOffset":3020632,
			"target":34962
		},
		{
			"buffer":0,
			"byteLength":105912,
			"byteOffset":3126544,
			"target":34962
		},
		{
			"buffer":0,
			"byteLength":52956,
			"byteOffset":3232456,
			"target":34962
		},
		{
			"buffer":0,
			"byteLength":105912,
			"byteOffset":3285412,
			"target":34962
		},
		{
			"buffer":0,
			"byteLength":105912,
			"byteOffset":3391324,
			"target":34962
		},
		{
			"buffer":0,
			"byteLength":75726,
			"byteOffset":3497236,
			"target":34963
		},
		{
			"buffer":0,
			"byteLength":556860,
			"byteOffset":3572964,
			"target":34962
		},
		{
			"buffer":0,
			"byteLength":556860,
			"byteOffset":4129824,
			"target":34962
		},
		{
			"buffer":0,
			"byteLength":371240,
			"byteOffset":4686684,
			"target":34962
		},
		{
			"buffer":0,
			"byteLength":371240,
			"byteOffset":5057924,
			"target":34962
		},
		{
			"buffer":0,
			"byteLength":185620,
			"byteOffset":5429164,
			"target":34962
		},
		{
			"buffer":0,
			"byteLength":371240,
			"byteOffset":5614784,
			"target":34962
		},
		{
			"buffer":0,
			"byteLength":371240,
			"byteOffset":5986024,
			"target":34962
		},
		{
			"buffer":0,
			"byteLength":305526,
			"byteOffset":6357264,
			"target":34963
		}
	],
	"samplers":[
		{
			"magFilter":9729,
			"minFilter":9987
		}
	],
	"buffers":[
		{
			"byteLength":6662792,
			"uri":"byd.bin"
		}
	]
}
