{
	"asset":{
		"generator":"Khronos glTF Blender I/O v5.0.21",
		"version":"2.0"
	},
	"scene":0,
	"scenes":[
		{
			"name":"Scene",
			"nodes":[
				0,
				1,
				2
			]
		}
	],
	"nodes":[
		{
			"mesh":0,
			"name":"Durare_Fabric",
			"rotation":[
				-0.7933486104011536,
				0.00213083834387362,
				0.608757734298706,
				0.002776962472125888
			],
			"scale":[
				0.0064146025106310844,
				0.006414603907614946,
				0.0064146025106310844
			],
			"translation":[
				0,
				0.7052693367004395,
				0
			]
		},
		{
			"mesh":1,
			"name":"Durare_ColorAtlas",
			"rotation":[
				-0.7933486104011536,
				0.00213083834387362,
				0.608757734298706,
				0.002776962472125888
			],
			"scale":[
				0.0064146025106310844,
				0.006414603907614946,
				0.0064146025106310844
			],
			"translation":[
				0,
				0.7052693367004395,
				0
			]
		},
		{
			"mesh":2,
			"name":"Durare_Zipper",
			"rotation":[
				-0.7933486104011536,
				0.00213083834387362,
				0.608757734298706,
				0.002776962472125888
			],
			"scale":[
				0.0064146025106310844,
				0.006414603907614946,
				0.0064146025106310844
			],
			"translation":[
				0,
				0.7052693367004395,
				0
			]
		}
	],
	"materials":[
		{
			"doubleSided":true,
			"name":"Fabric_Grey_1",
			"occlusionTexture":{
				"index":0,
				"texCoord":1
			},
			"pbrMetallicRoughness":{
				"baseColorTexture":{
					"index":1
				},
				"metallicFactor":0,
				"roughnessFactor":0.6000000238418579
			}
		},
		{
			"doubleSided":true,
			"name":"Atlasflow_04",
			"occlusionTexture":{
				"index":2,
				"texCoord":1
			},
			"pbrMetallicRoughness":{
				"baseColorTexture":{
					"index":3
				},
				"metallicRoughnessTexture":{
					"index":4,
					"texCoord":2
				}
			}
		},
		{
			"doubleSided":true,
			"name":"Zipper",
			"normalTexture":{
				"index":5
			},
			"occlusionTexture":{
				"index":6,
				"texCoord":1
			},
			"pbrMetallicRoughness":{
				"baseColorTexture":{
					"index":7
				},
				"roughnessFactor":0.4272727370262146
			}
		}
	],
	"meshes":[
		{
			"name":"Object_0",
			"primitives":[
				{
					"attributes":{
						"POSITION":0,
						"NORMAL":1,
						"TEXCOORD_0":2,
						"TEXCOORD_1":3
					},
					"indices":4,
					"material":0
				}
			]
		},
		{
			"name":"Object_0.001",
			"primitives":[
				{
					"attributes":{
						"POSITION":5,
						"NORMAL":6,
						"TEXCOORD_0":7,
						"TEXCOORD_1":8,
						"TEXCOORD_2":9,
						"TEXCOORD_3":10
					},
					"indices":11,
					"material":1
				}
			]
		},
		{
			"name":"Object_0.003",
			"primitives":[
				{
					"attributes":{
						"POSITION":12,
						"NORMAL":13,
						"TEXCOORD_0":14,
						"TEXCOORD_1":15
					},
					"indices":16,
					"material":2
				}
			]
		}
	],
	"textures":[
		{
			"sampler":0,
			"source":0
		},
		{
			"sampler":0,
			"source":1
		},
		{
			"sampler":0,
			"source":2
		},
		{
			"sampler":0,
			"source":3
		},
		{
			"sampler":0,
			"source":4
		},
		{
			"sampler":0,
			"source":5
		},
		{
			"sampler":0,
			"source":6
		},
		{
			"sampler":0,
			"source":7
		}
	],
	"images":[
		{
			"mimeType":"image/png",
			"name":"Durare_Fabric_lightmap",
			"uri":"Durare_Fabric_lightmap.png"
		},
		{
			"mimeType":"image/png",
			"name":"texture_holder_temp_Aggregated_Material",
			"uri":"texture_holder_temp_Aggregated_Material.png"
		},
		{
			"mimeType":"image/png",
			"name":"Durare_ColorAtlas_lightmap",
			"uri":"Durare_ColorAtlas_lightmap.png"
		},
		{
			"mimeType":"image/png",
			"name":"AtlasColorTexture",
			"uri":"AtlasColorTexture.png"
		},
		{
			"mimeType":"image/png",
			"name":"AtlasGrayTexture",
			"uri":"AtlasGrayTexture.png"
		},
		{
			"mimeType":"image/png",
			"name":"texture_holder_temp_Aggregated_Material_normal",
			"uri":"texture_holder_temp_Aggregated_Material_normal.png"
		},
		{
			"mimeType":"image/png",
			"name":"Durare_Zipper_lightmap",
			"uri":"Durare_Zipper_lightmap.png"
		},
		{
			"mimeType":"image/png",
			"name":"texture_holder_temp_Aggregated_Material",
			"uri":"texture_holder_temp_Aggregated_Material-1.png"
		}
	],
	"accessors":[
		{
			"bufferView":0,
			"componentType":5126,
			"count":237,
			"max":[
				127.5,
				242,
				137
			],
			"min":[
				-41.50923538208008,
				-258.7069091796875,
				-137
			],
			"type":"VEC3"
		},
		{
			"bufferView":1,
			"componentType":5126,
			"count":237,
			"type":"VEC3"
		},
		{
			"bufferView":2,
			"componentType":5126,
			"count":237,
			"type":"VEC2"
		},
		{
			"bufferView":3,
			"componentType":5126,
			"count":237,
			"type":"VEC2"
		},
		{
			"bufferView":4,
			"componentType":5123,
			"count":480,
			"type":"SCALAR"
		},
		{
			"bufferView":5,
			"componentType":5126,
			"count":76579,
			"max":[
				130.0503692626953,
				285.367919921875,
				178
			],
			"min":[
				-127.92867279052734,
				-272.17584228515625,
				-180.73069763183594
			],
			"type":"VEC3"
		},
		{
			"bufferView":6,
			"componentType":5126,
			"count":76579,
			"type":"VEC3"
		},
		{
			"bufferView":7,
			"componentType":5126,
			"count":76579,
			"type":"VEC2"
		},
		{
			"bufferView":8,
			"componentType":5126,
			"count":76579,
			"type":"VEC2"
		},
		{
			"bufferView":9,
			"componentType":5126,
			"count":76579,
			"type":"VEC2"
		},
		{
			"bufferView":10,
			"componentType":5126,
			"count":76579,
			"type":"VEC2"
		},
		{
			"bufferView":11,
			"componentType":5125,
			"count":185607,
			"type":"SCALAR"
		},
		{
			"bufferView":12,
			"componentType":5126,
			"count":84,
			"max":[
				126.83222198486328,
				240.68466186523438,
				135.53070068359375
			],
			"min":[
				-39.49888610839844,
				-258.4390563964844,
				-135.53070068359375
			],
			"type":"VEC3"
		},
		{
			"bufferView":13,
			"componentType":5126,
			"count":84,
			"type":"VEC3"
		},
		{
			"bufferView":14,
			"componentType":5126,
			"count":84,
			"type":"VEC2"
		},
		{
			"bufferView":15,
			"componentType":5126,
			"count":84,
			"type":"VEC2"
		},
		{
			"bufferView":16,
			"componentType":5123,
			"count":186,
			"type":"SCALAR"
		}
	],
	"bufferViews":[
		{
			"buffer":0,
			"byteLength":2844,
			"byteOffset":0,
			"target":34962
		},
		{
			"buffer":0,
			"byteLength":2844,
			"byteOffset":2844,
			"target":34962
		},
		{
			"buffer":0,
			"byteLength":1896,
			"byteOffset":5688,
			"target":34962
		},
		{
			"buffer":0,
			"byteLength":1896,
			"byteOffset":7584,
			"target":34962
		},
		{
			"buffer":0,
			"byteLength":960,
			"byteOffset":9480,
			"target":34963
		},
		{
			"buffer":0,
			"byteLength":918948,
			"byteOffset":10440,
			"target":34962
		},
		{
			"buffer":0,
			"byteLength":918948,
			"byteOffset":929388,
			"target":34962
		},
		{
			"buffer":0,
			"byteLength":612632,
			"byteOffset":1848336,
			"target":34962
		},
		{
			"buffer":0,
			"byteLength":612632,
			"byteOffset":2460968,
			"target":34962
		},
		{
			"buffer":0,
			"byteLength":612632,
			"byteOffset":3073600,
			"target":34962
		},
		{
			"buffer":0,
			"byteLength":612632,
			"byteOffset":3686232,
			"target":34962
		},
		{
			"buffer":0,
			"byteLength":742428,
			"byteOffset":4298864,
			"target":34963
		},
		{
			"buffer":0,
			"byteLength":1008,
			"byteOffset":5041292,
			"target":34962
		},
		{
			"buffer":0,
			"byteLength":1008,
			"byteOffset":5042300,
			"target":34962
		},
		{
			"buffer":0,
			"byteLength":672,
			"byteOffset":5043308,
			"target":34962
		},
		{
			"buffer":0,
			"byteLength":672,
			"byteOffset":5043980,
			"target":34962
		},
		{
			"buffer":0,
			"byteLength":372,
			"byteOffset":5044652,
			"target":34963
		}
	],
	"samplers":[
		{
			"magFilter":9729,
			"minFilter":9987
		}
	],
	"buffers":[
		{
			"byteLength":5045024,
			"uri":"durare.bin"
		}
	]
}
