{
	"asset":{
		"generator":"Khronos glTF Blender I/O v5.0.21",
		"version":"2.0"
	},
	"scene":0,
	"scenes":[
		{
			"name":"Scene",
			"nodes":[
				0,
				1,
				2
			]
		}
	],
	"nodes":[
		{
			"mesh":0,
			"name":"Barbecue_Remeshed",
			"rotation":[
				0,
				0.5876017212867737,
				0,
				0.8091502785682678
			],
			"scale":[
				15.225626945495605,
				15.225625991821289,
				15.225626945495605
			],
			"translation":[
				4.087133884429932,
				-1.1342003345489502,
				0.20901331305503845
			]
		},
		{
			"mesh":1,
			"name":"Hamburguer_Remeshed",
			"rotation":[
				0,
				-0.9072191119194031,
				0,
				0.4206584095954895
			],
			"scale":[
				13.864243507385254,
				13.864238739013672,
				13.864243507385254
			],
			"translation":[
				-2.6191558837890625,
				-1.1342003345489502,
				3.0061283111572266
			]
		},
		{
			"mesh":2,
			"name":"Salmon_Remeshed",
			"scale":[
				17.807361602783203,
				17.807361602783203,
				17.807361602783203
			],
			"translation":[
				-1.993828535079956,
				-1.1342002153396606,
				-3.7060675621032715
			]
		}
	],
	"materials":[
		{
			"doubleSided":true,
			"name":"baked_mesh_Material.001",
			"normalTexture":{
				"index":0
			},
			"pbrMetallicRoughness":{
				"baseColorTexture":{
					"index":1
				},
				"metallicFactor":0,
				"metallicRoughnessTexture":{
					"index":2
				}
			}
		},
		{
			"doubleSided":true,
			"name":"Hamburguer_HQ_Material",
			"normalTexture":{
				"index":3
			},
			"pbrMetallicRoughness":{
				"baseColorTexture":{
					"index":4
				},
				"metallicFactor":0
			}
		},
		{
			"doubleSided":true,
			"name":"Salmon_HQ_Material",
			"normalTexture":{
				"index":5
			},
			"pbrMetallicRoughness":{
				"baseColorTexture":{
					"index":6
				},
				"metallicFactor":0,
				"metallicRoughnessTexture":{
					"index":7
				}
			}
		}
	],
	"meshes":[
		{
			"name":"baked_mesh.016",
			"primitives":[
				{
					"attributes":{
						"POSITION":0,
						"NORMAL":1,
						"TEXCOORD_0":2
					},
					"indices":3,
					"material":0
				}
			]
		},
		{
			"name":"baked_mesh.012",
			"primitives":[
				{
					"attributes":{
						"POSITION":4,
						"NORMAL":5,
						"TEXCOORD_0":6
					},
					"indices":7,
					"material":1
				}
			]
		},
		{
			"name":"Plane.003",
			"primitives":[
				{
					"attributes":{
						"POSITION":8,
						"NORMAL":9,
						"TEXCOORD_0":10
					},
					"indices":11,
					"material":2
				}
			]
		}
	],
	"textures":[
		{
			"sampler":0,
			"source":0
		},
		{
			"sampler":0,
			"source":1
		},
		{
			"sampler":0,
			"source":2
		},
		{
			"sampler":0,
			"source":3
		},
		{
			"sampler":0,
			"source":4
		},
		{
			"sampler":0,
			"source":5
		},
		{
			"sampler":0,
			"source":6
		},
		{
			"sampler":0,
			"source":7
		}
	],
	"images":[
		{
			"mimeType":"image/png",
			"name":"baked_mesh_Material",
			"uri":"baked_mesh_Material.png"
		},
		{
			"mimeType":"image/png",
			"name":"baked_mesh_Material",
			"uri":"baked_mesh_Material-1.png"
		},
		{
			"mimeType":"image/png",
			"name":"baked_mesh_Material",
			"uri":"baked_mesh_Material-2.png"
		},
		{
			"mimeType":"image/png",
			"name":"Hamburguer_HQ_Material_normal",
			"uri":"Hamburguer_HQ_Material_normal.png"
		},
		{
			"mimeType":"image/png",
			"name":"Hamburguer_HQ_Material_diffuse",
			"uri":"Hamburguer_HQ_Material_diffuse.png"
		},
		{
			"mimeType":"image/png",
			"name":"Salmon_HQ_Material_normal",
			"uri":"Salmon_HQ_Material_normal.png"
		},
		{
			"mimeType":"image/png",
			"name":"Salmon_HQ_Material_diffuse",
			"uri":"Salmon_HQ_Material_diffuse.png"
		},
		{
			"mimeType":"image/png",
			"name":"Salmon_HQ_Material_roughness",
			"uri":"Salmon_HQ_Material_roughness.png"
		}
	],
	"accessors":[
		{
			"bufferView":0,
			"componentType":5126,
			"count":2611,
			"max":[
				0.26545846462249756,
				0.13179390132427216,
				0.19415733218193054
			],
			"min":[
				-0.2878853678703308,
				0.0005837262142449617,
				-0.19313479959964752
			],
			"type":"VEC3"
		},
		{
			"bufferView":1,
			"componentType":5126,
			"count":2611,
			"type":"VEC3"
		},
		{
			"bufferView":2,
			"componentType":5126,
			"count":2611,
			"type":"VEC2"
		},
		{
			"bufferView":3,
			"componentType":5123,
			"count":7350,
			"type":"SCALAR"
		},
		{
			"bufferView":4,
			"componentType":5126,
			"count":1663,
			"max":[
				0.2142479568719864,
				0.19381801784038544,
				0.11654220521450043
			],
			"min":[
				-0.2169211506843567,
				0.0016328359488397837,
				-0.14410188794136047
			],
			"type":"VEC3"
		},
		{
			"bufferView":5,
			"componentType":5126,
			"count":1663,
			"type":"VEC3"
		},
		{
			"bufferView":6,
			"componentType":5126,
			"count":1663,
			"type":"VEC2"
		},
		{
			"bufferView":7,
			"componentType":5123,
			"count":4950,
			"type":"SCALAR"
		},
		{
			"bufferView":8,
			"componentType":5126,
			"count":2692,
			"max":[
				0.18178042769432068,
				0.07560182362794876,
				0.18280087411403656
			],
			"min":[
				-0.18253235518932343,
				-3.895704503520392e-05,
				-0.18275877833366394
			],
			"type":"VEC3"
		},
		{
			"bufferView":9,
			"componentType":5126,
			"count":2692,
			"type":"VEC3"
		},
		{
			"bufferView":10,
			"componentType":5126,
			"count":2692,
			"type":"VEC2"
		},
		{
			"bufferView":11,
			"componentType":5123,
			"count":7554,
			"type":"SCALAR"
		}
	],
	"bufferViews":[
		{
			"buffer":0,
			"byteLength":31332,
			"byteOffset":0,
			"target":34962
		},
		{
			"buffer":0,
			"byteLength":31332,
			"byteOffset":31332,
			"target":34962
		},
		{
			"buffer":0,
			"byteLength":20888,
			"byteOffset":62664,
			"target":34962
		},
		{
			"buffer":0,
			"byteLength":14700,
			"byteOffset":83552,
			"target":34963
		},
		{
			"buffer":0,
			"byteLength":19956,
			"byteOffset":98252,
			"target":34962
		},
		{
			"buffer":0,
			"byteLength":19956,
			"byteOffset":118208,
			"target":34962
		},
		{
			"buffer":0,
			"byteLength":13304,
			"byteOffset":138164,
			"target":34962
		},
		{
			"buffer":0,
			"byteLength":9900,
			"byteOffset":151468,
			"target":34963
		},
		{
			"buffer":0,
			"byteLength":32304,
			"byteOffset":161368,
			"target":34962
		},
		{
			"buffer":0,
			"byteLength":32304,
			"byteOffset":193672,
			"target":34962
		},
		{
			"buffer":0,
			"byteLength":21536,
			"byteOffset":225976,
			"target":34962
		},
		{
			"buffer":0,
			"byteLength":15108,
			"byteOffset":247512,
			"target":34963
		}
	],
	"samplers":[
		{
			"magFilter":9729,
			"minFilter":9987
		}
	],
	"buffers":[
		{
			"byteLength":262620,
			"uri":"seara.bin"
		}
	]
}
