{
	"asset":{
		"generator":"Khronos glTF Blender I/O v5.0.21",
		"version":"2.0"
	},
	"scene":0,
	"scenes":[
		{
			"name":"Scene",
			"nodes":[
				0,
				1,
				2
			]
		}
	],
	"nodes":[
		{
			"mesh":0,
			"name":"DolceGusto_Alpha",
			"rotation":[
				-0.39245545864105225,
				-0.5881995558738708,
				-0.5881995558738708,
				0.39245545864105225
			],
			"scale":[
				0.11419326066970825,
				0.11303979903459549,
				0.11024840176105499
			],
			"translation":[
				-0.3998525142669678,
				-0.817542314529419,
				3.3114261627197266
			]
		},
		{
			"mesh":1,
			"name":"DolceGusto_ColorAtlas",
			"rotation":[
				-0.39245545864105225,
				-0.5881995558738708,
				-0.5881995558738708,
				0.39245545864105225
			],
			"scale":[
				0.11419326066970825,
				0.11303979903459549,
				0.11024840176105499
			],
			"translation":[
				-0.3998525142669678,
				-0.817542314529419,
				3.3114261627197266
			]
		},
		{
			"mesh":2,
			"name":"DolceGusto_Textured",
			"rotation":[
				-0.24951742589473724,
				-0.661620020866394,
				-0.661620020866394,
				0.24951747059822083
			],
			"scale":[
				0.14000003039836884,
				0.1358000636100769,
				0.13580003380775452
			],
			"translation":[
				-2.00787615776062,
				-1.786897897720337,
				-2.3427011966705322
			]
		}
	],
	"materials":[
		{
			"alphaMode":"BLEND",
			"name":"Material_4",
			"pbrMetallicRoughness":{
				"baseColorFactor":[
					1,
					1,
					1,
					0.30069929361343384
				],
				"metallicFactor":0.20000000298023224,
				"roughnessFactor":0.06400000303983688
			}
		},
		{
			"doubleSided":true,
			"name":"Atlasflow_01",
			"occlusionTexture":{
				"index":0,
				"texCoord":1
			},
			"pbrMetallicRoughness":{
				"baseColorTexture":{
					"index":1
				},
				"metallicRoughnessTexture":{
					"index":2,
					"texCoord":2
				}
			}
		},
		{
			"doubleSided":true,
			"name":"GenioSBasic_Textured_2_Aggregated_Material.001",
			"normalTexture":{
				"index":3
			},
			"occlusionTexture":{
				"index":4,
				"texCoord":1
			},
			"pbrMetallicRoughness":{
				"baseColorTexture":{
					"index":5
				},
				"metallicFactor":0,
				"metallicRoughnessTexture":{
					"index":4
				}
			}
		}
	],
	"meshes":[
		{
			"name":"Mesh_25.002",
			"primitives":[
				{
					"attributes":{
						"POSITION":0,
						"NORMAL":1,
						"TEXCOORD_0":2
					},
					"indices":3,
					"material":0
				},
				{
					"attributes":{
						"POSITION":4
					},
					"indices":5,
					"material":0,
					"mode":1
				}
			]
		},
		{
			"name":"Mesh_25",
			"primitives":[
				{
					"attributes":{
						"POSITION":6,
						"NORMAL":7,
						"TEXCOORD_0":8,
						"TEXCOORD_1":9,
						"TEXCOORD_2":10
					},
					"indices":11,
					"material":1
				}
			]
		},
		{
			"name":"Mesh_4.005",
			"primitives":[
				{
					"attributes":{
						"POSITION":12,
						"NORMAL":13,
						"TEXCOORD_0":14,
						"TEXCOORD_1":15
					},
					"indices":16,
					"material":2
				},
				{
					"attributes":{
						"POSITION":17
					},
					"indices":18,
					"material":2,
					"mode":1
				}
			]
		}
	],
	"textures":[
		{
			"sampler":0,
			"source":0
		},
		{
			"sampler":0,
			"source":1
		},
		{
			"sampler":0,
			"source":2
		},
		{
			"sampler":0,
			"source":3
		},
		{
			"sampler":0,
			"source":4
		},
		{
			"sampler":0,
			"source":5
		}
	],
	"images":[
		{
			"mimeType":"image/png",
			"name":"Lumio_ColorAtlas_lightmap",
			"uri":"Lumio_ColorAtlas_lightmap.png"
		},
		{
			"mimeType":"image/png",
			"name":"AtlasColorTexture",
			"uri":"AtlasColorTexture.png"
		},
		{
			"mimeType":"image/png",
			"name":"AtlasGrayTexture",
			"uri":"AtlasGrayTexture.png"
		},
		{
			"mimeType":"image/png",
			"name":"GenioSBasic_Textured_2_Aggregated_Material",
			"uri":"GenioSBasic_Textured_2_Aggregated_Material.png"
		},
		{
			"mimeType":"image/png",
			"name":"GenioSBasic_Textured_2_Aggregated_lightmap-GenioSBasic_Textured_2_Aggregated_Material",
			"uri":"GenioSBasic_Textured_2_Aggregated_lightmap-GenioSBasic_Textured_2_Aggregated_Material.png"
		},
		{
			"mimeType":"image/png",
			"name":"GenioSBasic_Textured_2_Aggregated_Material",
			"uri":"GenioSBasic_Textured_2_Aggregated_Material-1.png"
		}
	],
	"accessors":[
		{
			"bufferView":0,
			"componentType":5126,
			"count":33663,
			"max":[
				8.148540496826172,
				16.30030059814453,
				31.22282600402832
			],
			"min":[
				-64.71507263183594,
				-29.857162475585938,
				-8.79245662689209
			],
			"type":"VEC3"
		},
		{
			"bufferView":1,
			"componentType":5126,
			"count":33663,
			"type":"VEC3"
		},
		{
			"bufferView":2,
			"componentType":5126,
			"count":33663,
			"type":"VEC2"
		},
		{
			"bufferView":3,
			"componentType":5123,
			"count":89316,
			"type":"SCALAR"
		},
		{
			"bufferView":4,
			"componentType":5126,
			"count":236,
			"max":[
				5.494714736938477,
				9.399426460266113,
				19.038503646850586
			],
			"min":[
				-5.655259132385254,
				0.9760990738868713,
				6.265580654144287
			],
			"type":"VEC3"
		},
		{
			"bufferView":5,
			"componentType":5123,
			"count":236,
			"type":"SCALAR"
		},
		{
			"bufferView":6,
			"componentType":5126,
			"count":105779,
			"max":[
				19.714677810668945,
				24.190418243408203,
				41.30609130859375
			],
			"min":[
				-68.63294982910156,
				-49.055458068847656,
				-18.615093231201172
			],
			"type":"VEC3"
		},
		{
			"bufferView":7,
			"componentType":5126,
			"count":105779,
			"type":"VEC3"
		},
		{
			"bufferView":8,
			"componentType":5126,
			"count":105779,
			"type":"VEC2"
		},
		{
			"bufferView":9,
			"componentType":5126,
			"count":105779,
			"type":"VEC2"
		},
		{
			"bufferView":10,
			"componentType":5126,
			"count":105779,
			"type":"VEC2"
		},
		{
			"bufferView":11,
			"componentType":5125,
			"count":378375,
			"type":"SCALAR"
		},
		{
			"bufferView":12,
			"componentType":5126,
			"count":17228,
			"max":[
				25.05146598815918,
				39.02741622924805,
				40.76396942138672
			],
			"min":[
				-2.99381160736084,
				-4.000002384185791,
				0.9215025305747986
			],
			"type":"VEC3"
		},
		{
			"bufferView":13,
			"componentType":5126,
			"count":17228,
			"type":"VEC3"
		},
		{
			"bufferView":14,
			"componentType":5126,
			"count":17228,
			"type":"VEC2"
		},
		{
			"bufferView":15,
			"componentType":5126,
			"count":17228,
			"type":"VEC2"
		},
		{
			"bufferView":16,
			"componentType":5123,
			"count":64191,
			"type":"SCALAR"
		},
		{
			"bufferView":17,
			"componentType":5126,
			"count":12,
			"max":[
				21.89154815673828,
				35.93983840942383,
				34.94934844970703
			],
			"min":[
				15.76219654083252,
				30.29465103149414,
				25.341266632080078
			],
			"type":"VEC3"
		},
		{
			"bufferView":18,
			"componentType":5123,
			"count":12,
			"type":"SCALAR"
		}
	],
	"bufferViews":[
		{
			"buffer":0,
			"byteLength":403956,
			"byteOffset":0,
			"target":34962
		},
		{
			"buffer":0,
			"byteLength":403956,
			"byteOffset":403956,
			"target":34962
		},
		{
			"buffer":0,
			"byteLength":269304,
			"byteOffset":807912,
			"target":34962
		},
		{
			"buffer":0,
			"byteLength":178632,
			"byteOffset":1077216,
			"target":34963
		},
		{
			"buffer":0,
			"byteLength":2832,
			"byteOffset":1255848,
			"target":34962
		},
		{
			"buffer":0,
			"byteLength":472,
			"byteOffset":1258680,
			"target":34963
		},
		{
			"buffer":0,
			"byteLength":1269348,
			"byteOffset":1259152,
			"target":34962
		},
		{
			"buffer":0,
			"byteLength":1269348,
			"byteOffset":2528500,
			"target":34962
		},
		{
			"buffer":0,
			"byteLength":846232,
			"byteOffset":3797848,
			"target":34962
		},
		{
			"buffer":0,
			"byteLength":846232,
			"byteOffset":4644080,
			"target":34962
		},
		{
			"buffer":0,
			"byteLength":846232,
			"byteOffset":5490312,
			"target":34962
		},
		{
			"buffer":0,
			"byteLength":1513500,
			"byteOffset":6336544,
			"target":34963
		},
		{
			"buffer":0,
			"byteLength":206736,
			"byteOffset":7850044,
			"target":34962
		},
		{
			"buffer":0,
			"byteLength":206736,
			"byteOffset":8056780,
			"target":34962
		},
		{
			"buffer":0,
			"byteLength":137824,
			"byteOffset":8263516,
			"target":34962
		},
		{
			"buffer":0,
			"byteLength":137824,
			"byteOffset":8401340,
			"target":34962
		},
		{
			"buffer":0,
			"byteLength":128382,
			"byteOffset":8539164,
			"target":34963
		},
		{
			"buffer":0,
			"byteLength":144,
			"byteOffset":8667548,
			"target":34962
		},
		{
			"buffer":0,
			"byteLength":24,
			"byteOffset":8667692,
			"target":34963
		}
	],
	"samplers":[
		{
			"magFilter":9729,
			"minFilter":9987
		}
	],
	"buffers":[
		{
			"byteLength":8667716,
			"uri":"dolcegusto.bin"
		}
	]
}
