{
	"asset":{
		"generator":"Khronos glTF Blender I/O v5.0.21",
		"version":"2.0"
	},
	"scene":0,
	"scenes":[
		{
			"name":"Scene",
			"nodes":[
				2
			]
		}
	],
	"nodes":[
		{
			"name":"Bone",
			"translation":[
				-1.862645149230957e-09,
				0,
				0
			]
		},
		{
			"mesh":0,
			"name":"Meetkai_Suite",
			"skin":0
		},
		{
			"children":[
				1,
				0
			],
			"name":"Meetkai_Suite_Rig",
			"scale":[
				5,
				5,
				5
			],
			"translation":[
				0.1287812888622284,
				0.17625074088573456,
				0.0009242159430868924
			]
		}
	],
	"animations":[
		{
			"channels":[
				{
					"sampler":0,
					"target":{
						"node":0,
						"path":"rotation"
					}
				}
			],
			"name":"Meetkai_Suit_Rotation",
			"samplers":[
				{
					"input":8,
					"interpolation":"LINEAR",
					"output":9
				}
			]
		}
	],
	"materials":[
		{
			"doubleSided":true,
			"name":"Atlasflow_06",
			"pbrMetallicRoughness":{
				"baseColorTexture":{
					"index":0
				},
				"metallicRoughnessTexture":{
					"index":1,
					"texCoord":1
				}
			}
		}
	],
	"meshes":[
		{
			"name":"Plane",
			"primitives":[
				{
					"attributes":{
						"POSITION":0,
						"NORMAL":1,
						"TEXCOORD_0":2,
						"TEXCOORD_1":3,
						"JOINTS_0":4,
						"WEIGHTS_0":5
					},
					"indices":6,
					"material":0
				}
			]
		}
	],
	"textures":[
		{
			"sampler":0,
			"source":0
		},
		{
			"sampler":0,
			"source":1
		}
	],
	"images":[
		{
			"mimeType":"image/png",
			"name":"AtlasColorTexture",
			"uri":"AtlasColorTexture.png"
		},
		{
			"mimeType":"image/png",
			"name":"AtlasGrayTexture",
			"uri":"AtlasGrayTexture.png"
		}
	],
	"skins":[
		{
			"inverseBindMatrices":7,
			"joints":[
				0
			],
			"name":"Meetkai_Suite_Rig"
		}
	],
	"accessors":[
		{
			"bufferView":0,
			"componentType":5126,
			"count":2754,
			"max":[
				1.1466896533966064,
				2.464987277984619,
				2.9157180786132812
			],
			"min":[
				-1.794732928276062,
				-1.623800277709961,
				-1.7659696340560913
			],
			"type":"VEC3"
		},
		{
			"bufferView":1,
			"componentType":5126,
			"count":2754,
			"type":"VEC3"
		},
		{
			"bufferView":2,
			"componentType":5126,
			"count":2754,
			"type":"VEC2"
		},
		{
			"bufferView":3,
			"componentType":5126,
			"count":2754,
			"type":"VEC2"
		},
		{
			"bufferView":4,
			"componentType":5121,
			"count":2754,
			"type":"VEC4"
		},
		{
			"bufferView":5,
			"componentType":5126,
			"count":2754,
			"type":"VEC4"
		},
		{
			"bufferView":6,
			"componentType":5123,
			"count":16512,
			"type":"SCALAR"
		},
		{
			"bufferView":7,
			"componentType":5126,
			"count":1,
			"type":"MAT4"
		},
		{
			"bufferView":8,
			"componentType":5126,
			"count":250,
			"max":[
				10.416666666666666
			],
			"min":[
				0.041666666666666664
			],
			"type":"SCALAR"
		},
		{
			"bufferView":9,
			"componentType":5126,
			"count":250,
			"type":"VEC4"
		}
	],
	"bufferViews":[
		{
			"buffer":0,
			"byteLength":33048,
			"byteOffset":0,
			"target":34962
		},
		{
			"buffer":0,
			"byteLength":33048,
			"byteOffset":33048,
			"target":34962
		},
		{
			"buffer":0,
			"byteLength":22032,
			"byteOffset":66096,
			"target":34962
		},
		{
			"buffer":0,
			"byteLength":22032,
			"byteOffset":88128,
			"target":34962
		},
		{
			"buffer":0,
			"byteLength":11016,
			"byteOffset":110160,
			"target":34962
		},
		{
			"buffer":0,
			"byteLength":44064,
			"byteOffset":121176,
			"target":34962
		},
		{
			"buffer":0,
			"byteLength":33024,
			"byteOffset":165240,
			"target":34963
		},
		{
			"buffer":0,
			"byteLength":64,
			"byteOffset":198264
		},
		{
			"buffer":0,
			"byteLength":1000,
			"byteOffset":198328
		},
		{
			"buffer":0,
			"byteLength":4000,
			"byteOffset":199328
		}
	],
	"samplers":[
		{
			"magFilter":9729,
			"minFilter":9987
		}
	],
	"buffers":[
		{
			"byteLength":203328,
			"uri":"meetkaisuite.bin"
		}
	]
}
