{
	"asset":{
		"generator":"Khronos glTF Blender I/O v5.0.21",
		"version":"2.0"
	},
	"scene":0,
	"scenes":[
		{
			"name":"Scene",
			"nodes":[
				0,
				1,
				2
			]
		}
	],
	"nodes":[
		{
			"mesh":0,
			"name":"SESC-Museum.001",
			"rotation":[
				0,
				-0.7071067690849304,
				0,
				0.7071068286895752
			],
			"scale":[
				0.006565791089087725,
				0.006565791089087725,
				0.006565791089087725
			]
		},
		{
			"mesh":1,
			"name":"SESC-Museum.002",
			"rotation":[
				0,
				-0.7071067690849304,
				0,
				0.7071068286895752
			],
			"scale":[
				0.006565791089087725,
				0.006565791089087725,
				0.006565791089087725
			]
		},
		{
			"mesh":2,
			"name":"SESC-Museum",
			"rotation":[
				0,
				-0.7071067690849304,
				0,
				0.7071068286895752
			],
			"scale":[
				0.006565791089087725,
				0.006565791089087725,
				0.006565791089087725
			]
		}
	],
	"materials":[
		{
			"doubleSided":true,
			"name":"Textured",
			"normalTexture":{
				"index":0
			},
			"occlusionTexture":{
				"index":1,
				"texCoord":1
			},
			"pbrMetallicRoughness":{
				"baseColorTexture":{
					"index":2
				},
				"metallicFactor":0.4581247568130493,
				"roughnessFactor":0.8937197923660278
			}
		},
		{
			"doubleSided":true,
			"emissiveFactor":[
				1,
				1,
				1
			],
			"emissiveTexture":{
				"index":3,
				"texCoord":3
			},
			"name":"ColorAtlas_032",
			"occlusionTexture":{
				"index":4,
				"texCoord":1
			},
			"pbrMetallicRoughness":{
				"baseColorTexture":{
					"index":5
				},
				"metallicRoughnessTexture":{
					"index":6,
					"texCoord":2
				}
			}
		},
		{
			"doubleSided":true,
			"emissiveFactor":[
				1,
				1,
				1
			],
			"emissiveTexture":{
				"index":7,
				"texCoord":3
			},
			"name":"ColorAtlas_03.001",
			"pbrMetallicRoughness":{
				"baseColorTexture":{
					"index":8
				},
				"metallicRoughnessTexture":{
					"index":9,
					"texCoord":2
				}
			}
		}
	],
	"meshes":[
		{
			"name":"Janela-Verde v2.001",
			"primitives":[
				{
					"attributes":{
						"POSITION":0,
						"NORMAL":1,
						"TEXCOORD_0":2,
						"TEXCOORD_1":3,
						"COLOR_0":4,
						"COLOR_1":5
					},
					"indices":6,
					"material":0
				}
			]
		},
		{
			"name":"Janela-Verde v2.002",
			"primitives":[
				{
					"attributes":{
						"POSITION":7,
						"NORMAL":8,
						"TEXCOORD_0":9,
						"TEXCOORD_1":10,
						"TEXCOORD_2":11,
						"TEXCOORD_3":12,
						"COLOR_0":13,
						"COLOR_1":14
					},
					"indices":15,
					"material":1
				}
			]
		},
		{
			"name":"Janela-Verde v2.003",
			"primitives":[
				{
					"attributes":{
						"POSITION":16,
						"NORMAL":17,
						"TEXCOORD_0":18,
						"TEXCOORD_1":19,
						"TEXCOORD_2":20,
						"TEXCOORD_3":21,
						"COLOR_0":22,
						"COLOR_1":23
					},
					"indices":24,
					"material":2
				},
				{
					"attributes":{
						"POSITION":25,
						"COLOR_0":26
					},
					"indices":27,
					"material":2,
					"mode":1
				}
			]
		}
	],
	"textures":[
		{
			"sampler":0,
			"source":0
		},
		{
			"sampler":0,
			"source":1
		},
		{
			"sampler":0,
			"source":2
		},
		{
			"sampler":0,
			"source":3
		},
		{
			"sampler":0,
			"source":4
		},
		{
			"sampler":0,
			"source":3
		},
		{
			"sampler":0,
			"source":5
		},
		{
			"sampler":0,
			"source":3
		},
		{
			"sampler":0,
			"source":3
		},
		{
			"sampler":0,
			"source":5
		}
	],
	"images":[
		{
			"mimeType":"image/png",
			"name":"Component4 (1)_Remeshed_Aggregated_Material_normal",
			"uri":"Component4%20%281%29_Remeshed_Aggregated_Material_normal.png"
		},
		{
			"mimeType":"image/png",
			"name":"SESC-Museum.001_lightmap",
			"uri":"SESC-Museum.001_lightmap.png"
		},
		{
			"mimeType":"image/png",
			"name":"Component4 (1)_Remeshed_Aggregated_Material_diffuse",
			"uri":"Component4%20%281%29_Remeshed_Aggregated_Material_diffuse.png"
		},
		{
			"mimeType":"image/png",
			"name":"AtlasColorTexture",
			"uri":"AtlasColorTexture.png"
		},
		{
			"mimeType":"image/png",
			"name":"SESC-Museum.002_lightmap",
			"uri":"SESC-Museum.002_lightmap.png"
		},
		{
			"mimeType":"image/png",
			"name":"AtlasGrayTexture",
			"uri":"AtlasGrayTexture.png"
		}
	],
	"accessors":[
		{
			"bufferView":0,
			"componentType":5126,
			"count":1341,
			"max":[
				481.7536315917969,
				589.0904541015625,
				410.509033203125
			],
			"min":[
				-477.3782958984375,
				-20.483274459838867,
				-382.93096923828125
			],
			"type":"VEC3"
		},
		{
			"bufferView":1,
			"componentType":5126,
			"count":1341,
			"type":"VEC3"
		},
		{
			"bufferView":2,
			"componentType":5126,
			"count":1341,
			"type":"VEC2"
		},
		{
			"bufferView":3,
			"componentType":5126,
			"count":1341,
			"type":"VEC2"
		},
		{
			"bufferView":4,
			"componentType":5121,
			"count":1341,
			"normalized":true,
			"type":"VEC4"
		},
		{
			"bufferView":5,
			"componentType":5123,
			"count":1341,
			"normalized":true,
			"type":"VEC4"
		},
		{
			"bufferView":6,
			"componentType":5123,
			"count":3546,
			"type":"SCALAR"
		},
		{
			"bufferView":7,
			"componentType":5126,
			"count":33837,
			"max":[
				436.75360107421875,
				452.59112548828125,
				365.0770568847656
			],
			"min":[
				-432.3783264160156,
				-11.483274459838867,
				-338.3629455566406
			],
			"type":"VEC3"
		},
		{
			"bufferView":8,
			"componentType":5126,
			"count":33837,
			"type":"VEC3"
		},
		{
			"bufferView":9,
			"componentType":5126,
			"count":33837,
			"type":"VEC2"
		},
		{
			"bufferView":10,
			"componentType":5126,
			"count":33837,
			"type":"VEC2"
		},
		{
			"bufferView":11,
			"componentType":5126,
			"count":33837,
			"type":"VEC2"
		},
		{
			"bufferView":12,
			"componentType":5126,
			"count":33837,
			"type":"VEC2"
		},
		{
			"bufferView":13,
			"componentType":5121,
			"count":33837,
			"normalized":true,
			"type":"VEC4"
		},
		{
			"bufferView":14,
			"componentType":5123,
			"count":33837,
			"normalized":true,
			"type":"VEC4"
		},
		{
			"bufferView":15,
			"componentType":5123,
			"count":60459,
			"type":"SCALAR"
		},
		{
			"bufferView":16,
			"componentType":5126,
			"count":796172,
			"max":[
				455.7256164550781,
				471.75933837890625,
				384.76318359375
			],
			"min":[
				-454.5902404785156,
				-20.483272552490234,
				-360.5750427246094
			],
			"type":"VEC3"
		},
		{
			"bufferView":17,
			"componentType":5126,
			"count":796172,
			"type":"VEC3"
		},
		{
			"bufferView":18,
			"componentType":5126,
			"count":796172,
			"type":"VEC2"
		},
		{
			"bufferView":19,
			"componentType":5126,
			"count":796172,
			"type":"VEC2"
		},
		{
			"bufferView":20,
			"componentType":5126,
			"count":796172,
			"type":"VEC2"
		},
		{
			"bufferView":21,
			"componentType":5126,
			"count":796172,
			"type":"VEC2"
		},
		{
			"bufferView":22,
			"componentType":5121,
			"count":796172,
			"normalized":true,
			"type":"VEC4"
		},
		{
			"bufferView":23,
			"componentType":5123,
			"count":796172,
			"normalized":true,
			"type":"VEC4"
		},
		{
			"bufferView":24,
			"componentType":5125,
			"count":928428,
			"type":"SCALAR"
		},
		{
			"bufferView":25,
			"componentType":5126,
			"count":37,
			"max":[
				433.513671875,
				194.3477020263672,
				361.8370666503906
			],
			"min":[
				-432.3783874511719,
				38.043701171875,
				-338.3630065917969
			],
			"type":"VEC3"
		},
		{
			"bufferView":26,
			"componentType":5121,
			"count":37,
			"normalized":true,
			"type":"VEC4"
		},
		{
			"bufferView":27,
			"componentType":5123,
			"count":66,
			"type":"SCALAR"
		}
	],
	"bufferViews":[
		{
			"buffer":0,
			"byteLength":16092,
			"byteOffset":0,
			"target":34962
		},
		{
			"buffer":0,
			"byteLength":16092,
			"byteOffset":16092,
			"target":34962
		},
		{
			"buffer":0,
			"byteLength":10728,
			"byteOffset":32184,
			"target":34962
		},
		{
			"buffer":0,
			"byteLength":10728,
			"byteOffset":42912,
			"target":34962
		},
		{
			"buffer":0,
			"byteLength":5364,
			"byteOffset":53640,
			"target":34962
		},
		{
			"buffer":0,
			"byteLength":10728,
			"byteOffset":59004,
			"target":34962
		},
		{
			"buffer":0,
			"byteLength":7092,
			"byteOffset":69732,
			"target":34963
		},
		{
			"buffer":0,
			"byteLength":406044,
			"byteOffset":76824,
			"target":34962
		},
		{
			"buffer":0,
			"byteLength":406044,
			"byteOffset":482868,
			"target":34962
		},
		{
			"buffer":0,
			"byteLength":270696,
			"byteOffset":888912,
			"target":34962
		},
		{
			"buffer":0,
			"byteLength":270696,
			"byteOffset":1159608,
			"target":34962
		},
		{
			"buffer":0,
			"byteLength":270696,
			"byteOffset":1430304,
			"target":34962
		},
		{
			"buffer":0,
			"byteLength":270696,
			"byteOffset":1701000,
			"target":34962
		},
		{
			"buffer":0,
			"byteLength":135348,
			"byteOffset":1971696,
			"target":34962
		},
		{
			"buffer":0,
			"byteLength":270696,
			"byteOffset":2107044,
			"target":34962
		},
		{
			"buffer":0,
			"byteLength":120918,
			"byteOffset":2377740,
			"target":34963
		},
		{
			"buffer":0,
			"byteLength":9554064,
			"byteOffset":2498660,
			"target":34962
		},
		{
			"buffer":0,
			"byteLength":9554064,
			"byteOffset":12052724,
			"target":34962
		},
		{
			"buffer":0,
			"byteLength":6369376,
			"byteOffset":21606788,
			"target":34962
		},
		{
			"buffer":0,
			"byteLength":6369376,
			"byteOffset":27976164,
			"target":34962
		},
		{
			"buffer":0,
			"byteLength":6369376,
			"byteOffset":34345540,
			"target":34962
		},
		{
			"buffer":0,
			"byteLength":6369376,
			"byteOffset":40714916,
			"target":34962
		},
		{
			"buffer":0,
			"byteLength":3184688,
			"byteOffset":47084292,
			"target":34962
		},
		{
			"buffer":0,
			"byteLength":6369376,
			"byteOffset":50268980,
			"target":34962
		},
		{
			"buffer":0,
			"byteLength":3713712,
			"byteOffset":56638356,
			"target":34963
		},
		{
			"buffer":0,
			"byteLength":444,
			"byteOffset":60352068,
			"target":34962
		},
		{
			"buffer":0,
			"byteLength":148,
			"byteOffset":60352512,
			"target":34962
		},
		{
			"buffer":0,
			"byteLength":132,
			"byteOffset":60352660,
			"target":34963
		}
	],
	"samplers":[
		{
			"magFilter":9729,
			"minFilter":9987
		}
	],
	"buffers":[
		{
			"byteLength":60352792,
			"uri":"sesc.bin"
		}
	]
}
