{
	"asset":{
		"generator":"Khronos glTF Blender I/O v5.0.21",
		"version":"2.0"
	},
	"extensionsUsed":[
		"KHR_materials_clearcoat",
		"KHR_materials_sheen"
	],
	"scene":0,
	"scenes":[
		{
			"name":"Scene",
			"nodes":[
				0,
				2,
				3,
				4
			]
		}
	],
	"nodes":[
		{
			"mesh":0,
			"name":"platform",
			"translation":[
				6.747245788574219e-05,
				-0.9563981294631958,
				-8.58306884765625e-06
			]
		},
		{
			"name":"rocket_flames",
			"translation":[
				-0.02620898187160492,
				-1.3418266773223877,
				0.007378421723842621
			]
		},
		{
			"children":[
				1
			],
			"mesh":1,
			"name":"rocket",
			"translation":[
				-0.0005593299865722656,
				1.784668207168579,
				-0.005485057830810547
			]
		},
		{
			"mesh":2,
			"name":"sandbox",
			"translation":[
				0,
				0.7700034976005554,
				0
			]
		},
		{
			"mesh":3,
			"name":"telescope",
			"translation":[
				2.2037031650543213,
				0.5632579326629639,
				-3.0362653732299805
			]
		}
	],
	"materials":[
		{
			"doubleSided":true,
			"name":"floor_grid_mesh_Material",
			"normalTexture":{
				"index":0
			},
			"pbrMetallicRoughness":{
				"baseColorTexture":{
					"index":1
				},
				"metallicRoughnessTexture":{
					"index":2
				}
			}
		},
		{
			"doubleSided":true,
			"name":"rocket_Material",
			"normalTexture":{
				"index":3
			},
			"pbrMetallicRoughness":{
				"baseColorTexture":{
					"index":4
				},
				"metallicRoughnessTexture":{
					"index":5
				}
			}
		},
		{
			"doubleSided":true,
			"emissiveFactor":[
				0.20000000298023224,
				0.20000000298023224,
				0.20000000298023224
			],
			"emissiveTexture":{
				"index":6
			},
			"extensions":{
				"KHR_materials_clearcoat":{
					"clearcoatRoughnessFactor":0.10000000149011612
				},
				"KHR_materials_sheen":{
					"sheenColorFactor":[
						0.38045644760131836,
						0.28117796778678894,
						1.0
					],
					"sheenRoughnessFactor":0.20000000298023224
				}
			},
			"name":"Material.004",
			"normalTexture":{
				"index":7,
				"texCoord":1
			},
			"pbrMetallicRoughness":{
				"baseColorTexture":{
					"index":8
				},
				"metallicFactor":0.75,
				"roughnessFactor":0.25
			}
		},
		{
			"doubleSided":true,
			"name":"Material.008",
			"pbrMetallicRoughness":{
				"baseColorFactor":[
					0.37932896614074707,
					0.37932896614074707,
					0.37932896614074707,
					1
				],
				"metallicFactor":0.5,
				"roughnessFactor":0.4000000059604645
			}
		},
		{
			"doubleSided":true,
			"name":"desert_sand_dune",
			"normalTexture":{
				"index":9
			},
			"pbrMetallicRoughness":{
				"baseColorTexture":{
					"index":10
				},
				"metallicFactor":0.3499999940395355,
				"roughnessFactor":0.8999999761581421
			}
		},
		{
			"doubleSided":true,
			"name":"ColorAtlas_06",
			"pbrMetallicRoughness":{
				"baseColorTexture":{
					"index":11,
					"texCoord":1
				},
				"metallicRoughnessTexture":{
					"index":12,
					"texCoord":2
				}
			}
		}
	],
	"meshes":[
		{
			"name":"Mesh.063",
			"primitives":[
				{
					"attributes":{
						"POSITION":0,
						"NORMAL":1,
						"TEXCOORD_0":2
					},
					"indices":3,
					"material":0
				}
			]
		},
		{
			"name":"Mesh.077",
			"primitives":[
				{
					"attributes":{
						"POSITION":4,
						"NORMAL":5,
						"TEXCOORD_0":6
					},
					"indices":7,
					"material":1
				}
			]
		},
		{
			"name":"Circle.010",
			"primitives":[
				{
					"attributes":{
						"POSITION":8,
						"NORMAL":9,
						"TEXCOORD_0":10,
						"TEXCOORD_1":11,
						"TEXCOORD_2":12,
						"TEXCOORD_3":13,
						"TEXCOORD_4":14
					},
					"indices":15,
					"material":2
				},
				{
					"attributes":{
						"POSITION":16,
						"NORMAL":17,
						"TEXCOORD_0":18,
						"TEXCOORD_1":19,
						"TEXCOORD_2":20,
						"TEXCOORD_3":21,
						"TEXCOORD_4":22
					},
					"indices":23,
					"material":3
				},
				{
					"attributes":{
						"POSITION":24,
						"NORMAL":25,
						"TEXCOORD_0":26,
						"TEXCOORD_1":27,
						"TEXCOORD_2":28,
						"TEXCOORD_3":29,
						"TEXCOORD_4":30
					},
					"indices":31,
					"material":4
				}
			]
		},
		{
			"name":"Mesh.010",
			"primitives":[
				{
					"attributes":{
						"POSITION":32,
						"NORMAL":33,
						"TEXCOORD_0":34,
						"TEXCOORD_1":35,
						"TEXCOORD_2":36
					},
					"indices":37,
					"material":5
				}
			]
		}
	],
	"textures":[
		{
			"sampler":0,
			"source":0
		},
		{
			"sampler":0,
			"source":1
		},
		{
			"sampler":0,
			"source":2
		},
		{
			"sampler":0,
			"source":3
		},
		{
			"sampler":0,
			"source":4
		},
		{
			"sampler":0,
			"source":5
		},
		{
			"sampler":0,
			"source":6
		},
		{
			"sampler":0,
			"source":7
		},
		{
			"sampler":0,
			"source":6
		},
		{
			"sampler":0,
			"source":8
		},
		{
			"sampler":0,
			"source":9
		},
		{
			"sampler":0,
			"source":10
		},
		{
			"sampler":0,
			"source":11
		}
	],
	"images":[
		{
			"mimeType":"image/png",
			"name":"floor_grid_mesh_Material_normal",
			"uri":"floor_grid_mesh_Material_normal.png"
		},
		{
			"mimeType":"image/png",
			"name":"floor_grid_mesh_Material_diffuse",
			"uri":"floor_grid_mesh_Material_diffuse.png"
		},
		{
			"mimeType":"image/png",
			"name":"floor_grid_mesh_Material_metalness-floor_grid_mesh_Material_roughness",
			"uri":"floor_grid_mesh_Material_metalness-floor_grid_mesh_Material_roughness.png"
		},
		{
			"mimeType":"image/png",
			"name":"rocket_Material_normal",
			"uri":"rocket_Material_normal.png"
		},
		{
			"mimeType":"image/png",
			"name":"rocket_Material_diffuse",
			"uri":"rocket_Material_diffuse.png"
		},
		{
			"mimeType":"image/png",
			"name":"rocket_Material_metalness-rocket_Material_roughness",
			"uri":"rocket_Material_metalness-rocket_Material_roughness.png"
		},
		{
			"mimeType":"image/png",
			"name":"Untitled",
			"uri":"Untitled.png"
		},
		{
			"mimeType":"image/jpeg",
			"name":"Flakes_medium_normal",
			"uri":"Flakes_medium_normal.jpg"
		},
		{
			"mimeType":"image/png",
			"name":"desert_sand_dune_Desert_Sand_Dune_normal",
			"uri":"desert_sand_dune_Desert_Sand_Dune_normal.png"
		},
		{
			"mimeType":"image/png",
			"name":"desert_sand_dune_baseColor",
			"uri":"desert_sand_dune_baseColor.png"
		},
		{
			"mimeType":"image/png",
			"name":"AtlasColorTexture",
			"uri":"AtlasColorTexture.png"
		},
		{
			"mimeType":"image/png",
			"name":"AtlasGrayTexture",
			"uri":"AtlasGrayTexture.png"
		}
	],
	"accessors":[
		{
			"bufferView":0,
			"componentType":5126,
			"count":4178,
			"max":[
				2.0801751613616943,
				0.4178531765937805,
				2.0795207023620605
			],
			"min":[
				-2.0801751613616943,
				-0.4178532361984253,
				-2.0795207023620605
			],
			"type":"VEC3"
		},
		{
			"bufferView":1,
			"componentType":5126,
			"count":4178,
			"type":"VEC3"
		},
		{
			"bufferView":2,
			"componentType":5126,
			"count":4178,
			"type":"VEC2"
		},
		{
			"bufferView":3,
			"componentType":5123,
			"count":14952,
			"type":"SCALAR"
		},
		{
			"bufferView":4,
			"componentType":5126,
			"count":1890,
			"max":[
				0.8560370802879333,
				1.4834544658660889,
				0.8579619526863098
			],
			"min":[
				-0.8560370802879333,
				-1.4834544658660889,
				-0.8579619526863098
			],
			"type":"VEC3"
		},
		{
			"bufferView":5,
			"componentType":5126,
			"count":1890,
			"type":"VEC3"
		},
		{
			"bufferView":6,
			"componentType":5126,
			"count":1890,
			"type":"VEC2"
		},
		{
			"bufferView":7,
			"componentType":5123,
			"count":6876,
			"type":"SCALAR"
		},
		{
			"bufferView":8,
			"componentType":5126,
			"count":130,
			"max":[
				5.965260028839111,
				-2.3498222827911377,
				5.965260028839111
			],
			"min":[
				-5.965260028839111,
				-2.528923988342285,
				-5.965260028839111
			],
			"type":"VEC3"
		},
		{
			"bufferView":9,
			"componentType":5126,
			"count":130,
			"type":"VEC3"
		},
		{
			"bufferView":10,
			"componentType":5126,
			"count":130,
			"type":"VEC2"
		},
		{
			"bufferView":11,
			"componentType":5126,
			"count":130,
			"type":"VEC2"
		},
		{
			"bufferView":12,
			"componentType":5126,
			"count":130,
			"type":"VEC2"
		},
		{
			"bufferView":13,
			"componentType":5126,
			"count":130,
			"type":"VEC2"
		},
		{
			"bufferView":14,
			"componentType":5126,
			"count":130,
			"type":"VEC2"
		},
		{
			"bufferView":15,
			"componentType":5123,
			"count":384,
			"type":"SCALAR"
		},
		{
			"bufferView":16,
			"componentType":5126,
			"count":2187,
			"max":[
				6,
				-1.9909493923187256,
				6
			],
			"min":[
				-6,
				-2.778477907180786,
				-6
			],
			"type":"VEC3"
		},
		{
			"bufferView":17,
			"componentType":5126,
			"count":2187,
			"type":"VEC3"
		},
		{
			"bufferView":18,
			"componentType":5126,
			"count":2187,
			"type":"VEC2"
		},
		{
			"bufferView":19,
			"componentType":5126,
			"count":2187,
			"type":"VEC2"
		},
		{
			"bufferView":20,
			"componentType":5126,
			"count":2187,
			"type":"VEC2"
		},
		{
			"bufferView":21,
			"componentType":5126,
			"count":2187,
			"type":"VEC2"
		},
		{
			"bufferView":22,
			"componentType":5126,
			"count":2187,
			"type":"VEC2"
		},
		{
			"bufferView":23,
			"componentType":5123,
			"count":4992,
			"type":"SCALAR"
		},
		{
			"bufferView":24,
			"componentType":5126,
			"count":814,
			"max":[
				4.921584606170654,
				-1.9723182916641235,
				4.921584606170654
			],
			"min":[
				-4.921584606170654,
				-2.5534720420837402,
				-4.921584606170654
			],
			"type":"VEC3"
		},
		{
			"bufferView":25,
			"componentType":5126,
			"count":814,
			"type":"VEC3"
		},
		{
			"bufferView":26,
			"componentType":5126,
			"count":814,
			"type":"VEC2"
		},
		{
			"bufferView":27,
			"componentType":5126,
			"count":814,
			"type":"VEC2"
		},
		{
			"bufferView":28,
			"componentType":5126,
			"count":814,
			"type":"VEC2"
		},
		{
			"bufferView":29,
			"componentType":5126,
			"count":814,
			"type":"VEC2"
		},
		{
			"bufferView":30,
			"componentType":5126,
			"count":814,
			"type":"VEC2"
		},
		{
			"bufferView":31,
			"componentType":5123,
			"count":1722,
			"type":"SCALAR"
		},
		{
			"bufferView":32,
			"componentType":5126,
			"count":2153,
			"max":[
				0.7726690769195557,
				1.9175679683685303,
				0.7447903156280518
			],
			"min":[
				-0.7726690769195557,
				-1.9175679683685303,
				-0.7447903156280518
			],
			"type":"VEC3"
		},
		{
			"bufferView":33,
			"componentType":5126,
			"count":2153,
			"type":"VEC3"
		},
		{
			"bufferView":34,
			"componentType":5126,
			"count":2153,
			"type":"VEC2"
		},
		{
			"bufferView":35,
			"componentType":5126,
			"count":2153,
			"type":"VEC2"
		},
		{
			"bufferView":36,
			"componentType":5126,
			"count":2153,
			"type":"VEC2"
		},
		{
			"bufferView":37,
			"componentType":5123,
			"count":11274,
			"type":"SCALAR"
		}
	],
	"bufferViews":[
		{
			"buffer":0,
			"byteLength":50136,
			"byteOffset":0,
			"target":34962
		},
		{
			"buffer":0,
			"byteLength":50136,
			"byteOffset":50136,
			"target":34962
		},
		{
			"buffer":0,
			"byteLength":33424,
			"byteOffset":100272,
			"target":34962
		},
		{
			"buffer":0,
			"byteLength":29904,
			"byteOffset":133696,
			"target":34963
		},
		{
			"buffer":0,
			"byteLength":22680,
			"byteOffset":163600,
			"target":34962
		},
		{
			"buffer":0,
			"byteLength":22680,
			"byteOffset":186280,
			"target":34962
		},
		{
			"buffer":0,
			"byteLength":15120,
			"byteOffset":208960,
			"target":34962
		},
		{
			"buffer":0,
			"byteLength":13752,
			"byteOffset":224080,
			"target":34963
		},
		{
			"buffer":0,
			"byteLength":1560,
			"byteOffset":237832,
			"target":34962
		},
		{
			"buffer":0,
			"byteLength":1560,
			"byteOffset":239392,
			"target":34962
		},
		{
			"buffer":0,
			"byteLength":1040,
			"byteOffset":240952,
			"target":34962
		},
		{
			"buffer":0,
			"byteLength":1040,
			"byteOffset":241992,
			"target":34962
		},
		{
			"buffer":0,
			"byteLength":1040,
			"byteOffset":243032,
			"target":34962
		},
		{
			"buffer":0,
			"byteLength":1040,
			"byteOffset":244072,
			"target":34962
		},
		{
			"buffer":0,
			"byteLength":1040,
			"byteOffset":245112,
			"target":34962
		},
		{
			"buffer":0,
			"byteLength":768,
			"byteOffset":246152,
			"target":34963
		},
		{
			"buffer":0,
			"byteLength":26244,
			"byteOffset":246920,
			"target":34962
		},
		{
			"buffer":0,
			"byteLength":26244,
			"byteOffset":273164,
			"target":34962
		},
		{
			"buffer":0,
			"byteLength":17496,
			"byteOffset":299408,
			"target":34962
		},
		{
			"buffer":0,
			"byteLength":17496,
			"byteOffset":316904,
			"target":34962
		},
		{
			"buffer":0,
			"byteLength":17496,
			"byteOffset":334400,
			"target":34962
		},
		{
			"buffer":0,
			"byteLength":17496,
			"byteOffset":351896,
			"target":34962
		},
		{
			"buffer":0,
			"byteLength":17496,
			"byteOffset":369392,
			"target":34962
		},
		{
			"buffer":0,
			"byteLength":9984,
			"byteOffset":386888,
			"target":34963
		},
		{
			"buffer":0,
			"byteLength":9768,
			"byteOffset":396872,
			"target":34962
		},
		{
			"buffer":0,
			"byteLength":9768,
			"byteOffset":406640,
			"target":34962
		},
		{
			"buffer":0,
			"byteLength":6512,
			"byteOffset":416408,
			"target":34962
		},
		{
			"buffer":0,
			"byteLength":6512,
			"byteOffset":422920,
			"target":34962
		},
		{
			"buffer":0,
			"byteLength":6512,
			"byteOffset":429432,
			"target":34962
		},
		{
			"buffer":0,
			"byteLength":6512,
			"byteOffset":435944,
			"target":34962
		},
		{
			"buffer":0,
			"byteLength":6512,
			"byteOffset":442456,
			"target":34962
		},
		{
			"buffer":0,
			"byteLength":3444,
			"byteOffset":448968,
			"target":34963
		},
		{
			"buffer":0,
			"byteLength":25836,
			"byteOffset":452412,
			"target":34962
		},
		{
			"buffer":0,
			"byteLength":25836,
			"byteOffset":478248,
			"target":34962
		},
		{
			"buffer":0,
			"byteLength":17224,
			"byteOffset":504084,
			"target":34962
		},
		{
			"buffer":0,
			"byteLength":17224,
			"byteOffset":521308,
			"target":34962
		},
		{
			"buffer":0,
			"byteLength":17224,
			"byteOffset":538532,
			"target":34962
		},
		{
			"buffer":0,
			"byteLength":22548,
			"byteOffset":555756,
			"target":34963
		}
	],
	"samplers":[
		{
			"magFilter":9729,
			"minFilter":9987
		}
	],
	"buffers":[
		{
			"byteLength":578304,
			"uri":"musecraft.bin"
		}
	]
}
