{
	"asset":{
		"generator":"Khronos glTF Blender I/O v5.0.21",
		"version":"2.0"
	},
	"scene":0,
	"scenes":[
		{
			"name":"Scene",
			"nodes":[
				0,
				1,
				2
			]
		}
	],
	"nodes":[
		{
			"mesh":0,
			"name":"Top",
			"rotation":[
				0,
				-1,
				0,
				1.6292068494294654e-07
			],
			"scale":[
				0.0629783570766449,
				0.0629783570766449,
				0.0629783570766449
			],
			"translation":[
				0,
				-0.3241755962371826,
				0
			]
		},
		{
			"mesh":1,
			"name":"Main",
			"rotation":[
				0,
				-1,
				0,
				1.6292068494294654e-07
			],
			"scale":[
				0.0629783570766449,
				0.0629783570766449,
				0.0629783570766449
			],
			"translation":[
				0,
				-0.3241755962371826,
				0
			]
		},
		{
			"mesh":2,
			"name":"Screen",
			"rotation":[
				0,
				-1,
				0,
				1.6292068494294654e-07
			],
			"scale":[
				0.0629783570766449,
				0.0629783570766449,
				0.0629783570766449
			],
			"translation":[
				0,
				-0.3241755962371826,
				0
			]
		}
	],
	"materials":[
		{
			"doubleSided":true,
			"name":"metal_brake_disc_corroded",
			"normalTexture":{
				"index":0,
				"scale":10
			},
			"occlusionTexture":{
				"index":1,
				"texCoord":1
			},
			"pbrMetallicRoughness":{
				"baseColorTexture":{
					"index":2
				},
				"metallicFactor":0,
				"roughnessFactor":0.5
			}
		},
		{
			"doubleSided":true,
			"name":"printed_glass_reeded",
			"normalTexture":{
				"index":3
			},
			"occlusionTexture":{
				"index":4,
				"texCoord":1
			},
			"pbrMetallicRoughness":{
				"baseColorTexture":{
					"index":5,
					"texCoord":2
				},
				"metallicFactor":0,
				"roughnessFactor":0.5
			}
		},
		{
			"doubleSided":true,
			"name":"Atlasflow_02",
			"normalTexture":{
				"index":6,
				"scale":5
			},
			"occlusionTexture":{
				"index":7,
				"texCoord":1
			},
			"pbrMetallicRoughness":{
				"baseColorTexture":{
					"index":8,
					"texCoord":2
				},
				"metallicFactor":0.8590909242630005,
				"roughnessFactor":0.418181836605072
			}
		}
	],
	"meshes":[
		{
			"name":"Wheel_Aligner.001",
			"primitives":[
				{
					"attributes":{
						"POSITION":0,
						"NORMAL":1,
						"TEXCOORD_0":2,
						"TEXCOORD_1":3
					},
					"indices":4,
					"material":0
				}
			]
		},
		{
			"name":"Wheel_Aligner",
			"primitives":[
				{
					"attributes":{
						"POSITION":5,
						"NORMAL":6,
						"TEXCOORD_0":7,
						"TEXCOORD_1":8,
						"TEXCOORD_2":9
					},
					"indices":10,
					"material":1
				}
			]
		},
		{
			"name":"Structure-Main-without_LED.001",
			"primitives":[
				{
					"attributes":{
						"POSITION":11,
						"NORMAL":12,
						"TEXCOORD_0":13,
						"TEXCOORD_1":14,
						"TEXCOORD_2":15
					},
					"indices":16,
					"material":2
				}
			]
		}
	],
	"textures":[
		{
			"sampler":0,
			"source":0
		},
		{
			"sampler":0,
			"source":1
		},
		{
			"sampler":0,
			"source":2
		},
		{
			"sampler":0,
			"source":3
		},
		{
			"sampler":0,
			"source":4
		},
		{
			"sampler":0,
			"source":5
		},
		{
			"sampler":0,
			"source":3
		},
		{
			"sampler":0,
			"source":6
		},
		{
			"sampler":0,
			"source":7
		}
	],
	"images":[
		{
			"mimeType":"image/png",
			"name":"metal_brake_disc_corroded_Metal_Brake_Disc_Corroded_normal",
			"uri":"metal_brake_disc_corroded_Metal_Brake_Disc_Corroded_normal.png"
		},
		{
			"mimeType":"image/png",
			"name":"Top_lightmap",
			"uri":"Top_lightmap.png"
		},
		{
			"mimeType":"image/png",
			"name":"Untitled",
			"uri":"Untitled.png"
		},
		{
			"mimeType":"image/png",
			"name":"printed_glass_reeded_Printed_Glass_Reeded_normal",
			"uri":"printed_glass_reeded_Printed_Glass_Reeded_normal.png"
		},
		{
			"mimeType":"image/png",
			"name":"Main_lightmap",
			"uri":"Main_lightmap.png"
		},
		{
			"mimeType":"image/png",
			"name":"Untitled",
			"uri":"Untitled-1.png"
		},
		{
			"mimeType":"image/png",
			"name":"Screen_lightmap",
			"uri":"Screen_lightmap.png"
		},
		{
			"mimeType":"image/png",
			"name":"AtlasColorTexture",
			"uri":"AtlasColorTexture.png"
		}
	],
	"accessors":[
		{
			"bufferView":0,
			"componentType":5126,
			"count":275477,
			"max":[
				48.5,
				25.940401077270508,
				44.940940856933594
			],
			"min":[
				-49.12639236450195,
				15.478089332580566,
				-44.940940856933594
			],
			"type":"VEC3"
		},
		{
			"bufferView":1,
			"componentType":5126,
			"count":275477,
			"type":"VEC3"
		},
		{
			"bufferView":2,
			"componentType":5126,
			"count":275477,
			"type":"VEC2"
		},
		{
			"bufferView":3,
			"componentType":5126,
			"count":275477,
			"type":"VEC2"
		},
		{
			"bufferView":4,
			"componentType":5125,
			"count":310182,
			"type":"SCALAR"
		},
		{
			"bufferView":5,
			"componentType":5126,
			"count":436613,
			"max":[
				76,
				26.41848373413086,
				48.44595718383789
			],
			"min":[
				-49,
				0,
				-44.940940856933594
			],
			"type":"VEC3"
		},
		{
			"bufferView":6,
			"componentType":5126,
			"count":436613,
			"type":"VEC3"
		},
		{
			"bufferView":7,
			"componentType":5126,
			"count":436613,
			"type":"VEC2"
		},
		{
			"bufferView":8,
			"componentType":5126,
			"count":436613,
			"type":"VEC2"
		},
		{
			"bufferView":9,
			"componentType":5126,
			"count":436613,
			"type":"VEC2"
		},
		{
			"bufferView":10,
			"componentType":5125,
			"count":502278,
			"type":"SCALAR"
		},
		{
			"bufferView":11,
			"componentType":5126,
			"count":19319,
			"max":[
				64.67076873779297,
				24.185100555419922,
				47.00192642211914
			],
			"min":[
				-45.51831817626953,
				2.9503657817840576,
				-30.8778076171875
			],
			"type":"VEC3"
		},
		{
			"bufferView":12,
			"componentType":5126,
			"count":19319,
			"type":"VEC3"
		},
		{
			"bufferView":13,
			"componentType":5126,
			"count":19319,
			"type":"VEC2"
		},
		{
			"bufferView":14,
			"componentType":5126,
			"count":19319,
			"type":"VEC2"
		},
		{
			"bufferView":15,
			"componentType":5126,
			"count":19319,
			"type":"VEC2"
		},
		{
			"bufferView":16,
			"componentType":5123,
			"count":27078,
			"type":"SCALAR"
		}
	],
	"bufferViews":[
		{
			"buffer":0,
			"byteLength":3305724,
			"byteOffset":0,
			"target":34962
		},
		{
			"buffer":0,
			"byteLength":3305724,
			"byteOffset":3305724,
			"target":34962
		},
		{
			"buffer":0,
			"byteLength":2203816,
			"byteOffset":6611448,
			"target":34962
		},
		{
			"buffer":0,
			"byteLength":2203816,
			"byteOffset":8815264,
			"target":34962
		},
		{
			"buffer":0,
			"byteLength":1240728,
			"byteOffset":11019080,
			"target":34963
		},
		{
			"buffer":0,
			"byteLength":5239356,
			"byteOffset":12259808,
			"target":34962
		},
		{
			"buffer":0,
			"byteLength":5239356,
			"byteOffset":17499164,
			"target":34962
		},
		{
			"buffer":0,
			"byteLength":3492904,
			"byteOffset":22738520,
			"target":34962
		},
		{
			"buffer":0,
			"byteLength":3492904,
			"byteOffset":26231424,
			"target":34962
		},
		{
			"buffer":0,
			"byteLength":3492904,
			"byteOffset":29724328,
			"target":34962
		},
		{
			"buffer":0,
			"byteLength":2009112,
			"byteOffset":33217232,
			"target":34963
		},
		{
			"buffer":0,
			"byteLength":231828,
			"byteOffset":35226344,
			"target":34962
		},
		{
			"buffer":0,
			"byteLength":231828,
			"byteOffset":35458172,
			"target":34962
		},
		{
			"buffer":0,
			"byteLength":154552,
			"byteOffset":35690000,
			"target":34962
		},
		{
			"buffer":0,
			"byteLength":154552,
			"byteOffset":35844552,
			"target":34962
		},
		{
			"buffer":0,
			"byteLength":154552,
			"byteOffset":35999104,
			"target":34962
		},
		{
			"buffer":0,
			"byteLength":54156,
			"byteOffset":36153656,
			"target":34963
		}
	],
	"samplers":[
		{
			"magFilter":9729,
			"minFilter":9987
		}
	],
	"buffers":[
		{
			"byteLength":36207812,
			"uri":"starwars.bin"
		}
	]
}
