{
	"asset":{
		"generator":"Khronos glTF Blender I/O v5.0.21",
		"version":"2.0"
	},
	"scene":0,
	"scenes":[
		{
			"name":"Scene",
			"nodes":[
				0
			]
		}
	],
	"nodes":[
		{
			"mesh":0,
			"name":"MESC_Museum"
		}
	],
	"materials":[
		{
			"doubleSided":true,
			"name":"ColorAtlas_02-MESC",
			"occlusionTexture":{
				"index":0,
				"texCoord":1
			},
			"pbrMetallicRoughness":{
				"baseColorTexture":{
					"index":1
				},
				"metallicRoughnessTexture":{
					"index":2,
					"texCoord":2
				}
			}
		},
		{
			"doubleSided":true,
			"name":"MESC-Textured",
			"normalTexture":{
				"index":3,
				"texCoord":3
			},
			"occlusionTexture":{
				"index":4,
				"texCoord":1
			},
			"pbrMetallicRoughness":{
				"baseColorTexture":{
					"index":5,
					"texCoord":3
				},
				"metallicRoughnessTexture":{
					"index":4,
					"texCoord":3
				}
			}
		},
		{
			"doubleSided":true,
			"name":"ColorAtlas_01-MESC",
			"occlusionTexture":{
				"index":6,
				"texCoord":1
			},
			"pbrMetallicRoughness":{
				"baseColorTexture":{
					"index":7
				},
				"metallicRoughnessTexture":{
					"index":8,
					"texCoord":2
				}
			}
		},
		{
			"doubleSided":true,
			"name":"ColorAtlas_03-MESC",
			"occlusionTexture":{
				"index":9,
				"texCoord":1
			},
			"pbrMetallicRoughness":{
				"baseColorTexture":{
					"index":10
				},
				"metallicRoughnessTexture":{
					"index":11,
					"texCoord":2
				}
			}
		}
	],
	"meshes":[
		{
			"name":"Maquete MESC - Miniatura.031",
			"primitives":[
				{
					"attributes":{
						"POSITION":0,
						"NORMAL":1,
						"TEXCOORD_0":2,
						"TEXCOORD_1":3,
						"TEXCOORD_2":4,
						"TEXCOORD_3":5
					},
					"indices":6,
					"material":0
				},
				{
					"attributes":{
						"POSITION":7,
						"NORMAL":8,
						"TEXCOORD_0":9,
						"TEXCOORD_1":10,
						"TEXCOORD_2":11,
						"TEXCOORD_3":12
					},
					"indices":13,
					"material":1
				},
				{
					"attributes":{
						"POSITION":14,
						"NORMAL":15,
						"TEXCOORD_0":16,
						"TEXCOORD_1":17,
						"TEXCOORD_2":18,
						"TEXCOORD_3":19
					},
					"indices":20,
					"material":2
				},
				{
					"attributes":{
						"POSITION":21,
						"NORMAL":22,
						"TEXCOORD_0":23,
						"TEXCOORD_1":24,
						"TEXCOORD_2":25,
						"TEXCOORD_3":26
					},
					"indices":27,
					"material":3
				}
			]
		}
	],
	"textures":[
		{
			"sampler":0,
			"source":0
		},
		{
			"sampler":0,
			"source":1
		},
		{
			"sampler":0,
			"source":2
		},
		{
			"sampler":0,
			"source":3
		},
		{
			"sampler":0,
			"source":4
		},
		{
			"sampler":0,
			"source":5
		},
		{
			"sampler":0,
			"source":6
		},
		{
			"sampler":0,
			"source":1
		},
		{
			"sampler":0,
			"source":2
		},
		{
			"sampler":0,
			"source":7
		},
		{
			"sampler":0,
			"source":1
		},
		{
			"sampler":0,
			"source":2
		}
	],
	"images":[
		{
			"mimeType":"image/png",
			"name":"MESC_Museum_lightmap",
			"uri":"MESC_Museum_lightmap.png"
		},
		{
			"mimeType":"image/png",
			"name":"AtlasColorTexture",
			"uri":"AtlasColorTexture.png"
		},
		{
			"mimeType":"image/png",
			"name":"AtlasGrayTexture",
			"uri":"AtlasGrayTexture.png"
		},
		{
			"mimeType":"image/png",
			"name":"Maquete MESC - Miniatura",
			"uri":"Maquete%20MESC%20-%20Miniatura.png"
		},
		{
			"mimeType":"image/png",
			"name":"MESC_Museum.001_lightmap-Maquete MESC - Miniatura-Maquete MESC - Miniatura",
			"uri":"MESC_Museum.001_lightmap-Maquete%20MESC%20-%20Miniatura-Maquete%20MESC%20-%20Miniatura.png"
		},
		{
			"mimeType":"image/png",
			"name":"Maquete MESC - Miniatura",
			"uri":"Maquete%20MESC%20-%20Miniatura-1.png"
		},
		{
			"mimeType":"image/png",
			"name":"MESC_Museum.002_lightmap",
			"uri":"MESC_Museum.002_lightmap.png"
		},
		{
			"mimeType":"image/png",
			"name":"MESC_Museum.003_lightmap",
			"uri":"MESC_Museum.003_lightmap.png"
		}
	],
	"accessors":[
		{
			"bufferView":0,
			"componentType":5126,
			"count":191832,
			"max":[
				3.922691822052002,
				2.3642728328704834,
				2.0944294929504395
			],
			"min":[
				-4.293477535247803,
				0.016470907256007195,
				-2.1075122356414795
			],
			"type":"VEC3"
		},
		{
			"bufferView":1,
			"componentType":5126,
			"count":191832,
			"type":"VEC3"
		},
		{
			"bufferView":2,
			"componentType":5126,
			"count":191832,
			"type":"VEC2"
		},
		{
			"bufferView":3,
			"componentType":5126,
			"count":191832,
			"type":"VEC2"
		},
		{
			"bufferView":4,
			"componentType":5126,
			"count":191832,
			"type":"VEC2"
		},
		{
			"bufferView":5,
			"componentType":5126,
			"count":191832,
			"type":"VEC2"
		},
		{
			"bufferView":6,
			"componentType":5125,
			"count":218001,
			"type":"SCALAR"
		},
		{
			"bufferView":7,
			"componentType":5126,
			"count":1848,
			"max":[
				3.594911575317383,
				2.976266384124756,
				1.7694690227508545
			],
			"min":[
				-4.293123722076416,
				0.016471020877361298,
				-1.7807470560073853
			],
			"type":"VEC3"
		},
		{
			"bufferView":8,
			"componentType":5126,
			"count":1848,
			"type":"VEC3"
		},
		{
			"bufferView":9,
			"componentType":5126,
			"count":1848,
			"type":"VEC2"
		},
		{
			"bufferView":10,
			"componentType":5126,
			"count":1848,
			"type":"VEC2"
		},
		{
			"bufferView":11,
			"componentType":5126,
			"count":1848,
			"type":"VEC2"
		},
		{
			"bufferView":12,
			"componentType":5126,
			"count":1848,
			"type":"VEC2"
		},
		{
			"bufferView":13,
			"componentType":5123,
			"count":5220,
			"type":"SCALAR"
		},
		{
			"bufferView":14,
			"componentType":5126,
			"count":140429,
			"max":[
				3.9424407482147217,
				2.9971115589141846,
				2.114178419113159
			],
			"min":[
				-4.313225746154785,
				-7.178085184023075e-07,
				-2.1272592544555664
			],
			"type":"VEC3"
		},
		{
			"bufferView":15,
			"componentType":5126,
			"count":140429,
			"type":"VEC3"
		},
		{
			"bufferView":16,
			"componentType":5126,
			"count":140429,
			"type":"VEC2"
		},
		{
			"bufferView":17,
			"componentType":5126,
			"count":140429,
			"type":"VEC2"
		},
		{
			"bufferView":18,
			"componentType":5126,
			"count":140429,
			"type":"VEC2"
		},
		{
			"bufferView":19,
			"componentType":5126,
			"count":140429,
			"type":"VEC2"
		},
		{
			"bufferView":20,
			"componentType":5125,
			"count":198867,
			"type":"SCALAR"
		},
		{
			"bufferView":21,
			"componentType":5126,
			"count":102831,
			"max":[
				3.7476532459259033,
				2.9735803604125977,
				1.985267996788025
			],
			"min":[
				-4.277479648590088,
				0.3306545615196228,
				-1.998095154762268
			],
			"type":"VEC3"
		},
		{
			"bufferView":22,
			"componentType":5126,
			"count":102831,
			"type":"VEC3"
		},
		{
			"bufferView":23,
			"componentType":5126,
			"count":102831,
			"type":"VEC2"
		},
		{
			"bufferView":24,
			"componentType":5126,
			"count":102831,
			"type":"VEC2"
		},
		{
			"bufferView":25,
			"componentType":5126,
			"count":102831,
			"type":"VEC2"
		},
		{
			"bufferView":26,
			"componentType":5126,
			"count":102831,
			"type":"VEC2"
		},
		{
			"bufferView":27,
			"componentType":5125,
			"count":108993,
			"type":"SCALAR"
		}
	],
	"bufferViews":[
		{
			"buffer":0,
			"byteLength":2301984,
			"byteOffset":0,
			"target":34962
		},
		{
			"buffer":0,
			"byteLength":2301984,
			"byteOffset":2301984,
			"target":34962
		},
		{
			"buffer":0,
			"byteLength":1534656,
			"byteOffset":4603968,
			"target":34962
		},
		{
			"buffer":0,
			"byteLength":1534656,
			"byteOffset":6138624,
			"target":34962
		},
		{
			"buffer":0,
			"byteLength":1534656,
			"byteOffset":7673280,
			"target":34962
		},
		{
			"buffer":0,
			"byteLength":1534656,
			"byteOffset":9207936,
			"target":34962
		},
		{
			"buffer":0,
			"byteLength":872004,
			"byteOffset":10742592,
			"target":34963
		},
		{
			"buffer":0,
			"byteLength":22176,
			"byteOffset":11614596,
			"target":34962
		},
		{
			"buffer":0,
			"byteLength":22176,
			"byteOffset":11636772,
			"target":34962
		},
		{
			"buffer":0,
			"byteLength":14784,
			"byteOffset":11658948,
			"target":34962
		},
		{
			"buffer":0,
			"byteLength":14784,
			"byteOffset":11673732,
			"target":34962
		},
		{
			"buffer":0,
			"byteLength":14784,
			"byteOffset":11688516,
			"target":34962
		},
		{
			"buffer":0,
			"byteLength":14784,
			"byteOffset":11703300,
			"target":34962
		},
		{
			"buffer":0,
			"byteLength":10440,
			"byteOffset":11718084,
			"target":34963
		},
		{
			"buffer":0,
			"byteLength":1685148,
			"byteOffset":11728524,
			"target":34962
		},
		{
			"buffer":0,
			"byteLength":1685148,
			"byteOffset":13413672,
			"target":34962
		},
		{
			"buffer":0,
			"byteLength":1123432,
			"byteOffset":15098820,
			"target":34962
		},
		{
			"buffer":0,
			"byteLength":1123432,
			"byteOffset":16222252,
			"target":34962
		},
		{
			"buffer":0,
			"byteLength":1123432,
			"byteOffset":17345684,
			"target":34962
		},
		{
			"buffer":0,
			"byteLength":1123432,
			"byteOffset":18469116,
			"target":34962
		},
		{
			"buffer":0,
			"byteLength":795468,
			"byteOffset":19592548,
			"target":34963
		},
		{
			"buffer":0,
			"byteLength":1233972,
			"byteOffset":20388016,
			"target":34962
		},
		{
			"buffer":0,
			"byteLength":1233972,
			"byteOffset":21621988,
			"target":34962
		},
		{
			"buffer":0,
			"byteLength":822648,
			"byteOffset":22855960,
			"target":34962
		},
		{
			"buffer":0,
			"byteLength":822648,
			"byteOffset":23678608,
			"target":34962
		},
		{
			"buffer":0,
			"byteLength":822648,
			"byteOffset":24501256,
			"target":34962
		},
		{
			"buffer":0,
			"byteLength":822648,
			"byteOffset":25323904,
			"target":34962
		},
		{
			"buffer":0,
			"byteLength":435972,
			"byteOffset":26146552,
			"target":34963
		}
	],
	"samplers":[
		{
			"magFilter":9729,
			"minFilter":9987
		}
	],
	"buffers":[
		{
			"byteLength":26582524,
			"uri":"mesc.bin"
		}
	]
}
