{
	"asset":{
		"generator":"Khronos glTF Blender I/O v4.4.55",
		"version":"2.0"
	},
	"scene":0,
	"scenes":[
		{
			"name":"Scene",
			"nodes":[
				0
			]
		}
	],
	"nodes":[
		{
			"mesh":0,
			"name":"SESC-Museum",
			"rotation":[
				0,
				-0.7071067690849304,
				0,
				0.7071068286895752
			],
			"scale":[
				0.006565791089087725,
				0.006565791089087725,
				0.006565791089087725
			]
		}
	],
	"materials":[
		{
			"doubleSided":true,
			"name":"Textured",
			"normalTexture":{
				"index":0,
				"texCoord":4
			},
			"occlusionTexture":{
				"index":1,
				"texCoord":1
			},
			"pbrMetallicRoughness":{
				"baseColorTexture":{
					"index":2,
					"texCoord":4
				},
				"metallicFactor":0.4581247568130493,
				"roughnessFactor":0.8937197923660278
			}
		},
		{
			"doubleSided":true,
			"emissiveFactor":[
				1,
				1,
				1
			],
			"emissiveTexture":{
				"index":3,
				"texCoord":3
			},
			"name":"ColorAtlas_03",
			"occlusionTexture":{
				"index":4,
				"texCoord":1
			},
			"pbrMetallicRoughness":{
				"baseColorTexture":{
					"index":5
				},
				"metallicRoughnessTexture":{
					"index":6,
					"texCoord":2
				}
			}
		}
	],
	"meshes":[
		{
			"name":"Janela-Verde v2",
			"primitives":[
				{
					"attributes":{
						"POSITION":0,
						"NORMAL":1,
						"TEXCOORD_0":2,
						"TEXCOORD_1":3,
						"TEXCOORD_2":4,
						"TEXCOORD_3":5,
						"TEXCOORD_4":6,
						"COLOR_0":7,
						"COLOR_1":8
					},
					"indices":9,
					"material":0
				},
				{
					"attributes":{
						"POSITION":10,
						"NORMAL":11,
						"TEXCOORD_0":12,
						"TEXCOORD_1":13,
						"TEXCOORD_2":14,
						"TEXCOORD_3":15,
						"TEXCOORD_4":16,
						"COLOR_0":17,
						"COLOR_1":18
					},
					"indices":19,
					"material":1
				},
				{
					"attributes":{
						"POSITION":20,
						"COLOR_0":21
					},
					"indices":22,
					"material":0,
					"mode":1
				}
			]
		}
	],
	"textures":[
		{
			"sampler":0,
			"source":0
		},
		{
			"sampler":0,
			"source":1
		},
		{
			"sampler":0,
			"source":2
		},
		{
			"sampler":0,
			"source":3
		},
		{
			"sampler":0,
			"source":4
		},
		{
			"sampler":0,
			"source":3
		},
		{
			"sampler":0,
			"source":5
		}
	],
	"images":[
		{
			"mimeType":"image/png",
			"name":"Component4 (1)_Remeshed_Aggregated_Material_normal",
			"uri":"Component4%201_Remeshed_Aggregated_Material_normal.png"
		},
		{
			"mimeType":"image/png",
			"name":"SESC-Museum-Textured_lightmap",
			"uri":"SESC-Museum-Textured_lightmap.png"
		},
		{
			"mimeType":"image/png",
			"name":"Component4 (1)_Remeshed_Aggregated_Material_diffuse",
			"uri":"Component4%201_Remeshed_Aggregated_Material_diffuse.png"
		},
		{
			"mimeType":"image/png",
			"name":"AtlasColorTexture",
			"uri":"AtlasColorTexture.png"
		},
		{
			"mimeType":"image/png",
			"name":"SESC-Museum.001_lightmap",
			"uri":"SESC-Museum_001_lightmap.png"
		},
		{
			"mimeType":"image/png",
			"name":"AtlasGrayTexture",
			"uri":"AtlasGrayTexture.png"
		}
	],
	"accessors":[
		{
			"bufferView":0,
			"componentType":5126,
			"count":1341,
			"max":[
				481.7536315917969,
				589.0904541015625,
				410.509033203125
			],
			"min":[
				-477.3782958984375,
				-20.483274459838867,
				-382.93096923828125
			],
			"type":"VEC3"
		},
		{
			"bufferView":1,
			"componentType":5126,
			"count":1341,
			"type":"VEC3"
		},
		{
			"bufferView":2,
			"componentType":5126,
			"count":1341,
			"type":"VEC2"
		},
		{
			"bufferView":3,
			"componentType":5126,
			"count":1341,
			"type":"VEC2"
		},
		{
			"bufferView":4,
			"componentType":5126,
			"count":1341,
			"type":"VEC2"
		},
		{
			"bufferView":5,
			"componentType":5126,
			"count":1341,
			"type":"VEC2"
		},
		{
			"bufferView":6,
			"componentType":5126,
			"count":1341,
			"type":"VEC2"
		},
		{
			"bufferView":7,
			"componentType":5121,
			"count":1341,
			"normalized":true,
			"type":"VEC4"
		},
		{
			"bufferView":8,
			"componentType":5123,
			"count":1341,
			"normalized":true,
			"type":"VEC4"
		},
		{
			"bufferView":9,
			"componentType":5123,
			"count":3546,
			"type":"SCALAR"
		},
		{
			"bufferView":10,
			"componentType":5126,
			"count":810562,
			"max":[
				455.72564697265625,
				471.75933837890625,
				384.76318359375
			],
			"min":[
				-454.5902404785156,
				-20.483272552490234,
				-360.5750427246094
			],
			"type":"VEC3"
		},
		{
			"bufferView":11,
			"componentType":5126,
			"count":810562,
			"type":"VEC3"
		},
		{
			"bufferView":12,
			"componentType":5126,
			"count":810562,
			"type":"VEC2"
		},
		{
			"bufferView":13,
			"componentType":5126,
			"count":810562,
			"type":"VEC2"
		},
		{
			"bufferView":14,
			"componentType":5126,
			"count":810562,
			"type":"VEC2"
		},
		{
			"bufferView":15,
			"componentType":5126,
			"count":810562,
			"type":"VEC2"
		},
		{
			"bufferView":16,
			"componentType":5126,
			"count":810562,
			"type":"VEC2"
		},
		{
			"bufferView":17,
			"componentType":5121,
			"count":810562,
			"normalized":true,
			"type":"VEC4"
		},
		{
			"bufferView":18,
			"componentType":5123,
			"count":810562,
			"normalized":true,
			"type":"VEC4"
		},
		{
			"bufferView":19,
			"componentType":5125,
			"count":992499,
			"type":"SCALAR"
		},
		{
			"bufferView":20,
			"componentType":5126,
			"count":37,
			"max":[
				433.513671875,
				194.3477020263672,
				361.8370666503906
			],
			"min":[
				-432.3783874511719,
				38.043701171875,
				-338.3630065917969
			],
			"type":"VEC3"
		},
		{
			"bufferView":21,
			"componentType":5121,
			"count":37,
			"normalized":true,
			"type":"VEC4"
		},
		{
			"bufferView":22,
			"componentType":5123,
			"count":66,
			"type":"SCALAR"
		}
	],
	"bufferViews":[
		{
			"buffer":0,
			"byteLength":16092,
			"byteOffset":0,
			"target":34962
		},
		{
			"buffer":0,
			"byteLength":16092,
			"byteOffset":16092,
			"target":34962
		},
		{
			"buffer":0,
			"byteLength":10728,
			"byteOffset":32184,
			"target":34962
		},
		{
			"buffer":0,
			"byteLength":10728,
			"byteOffset":42912,
			"target":34962
		},
		{
			"buffer":0,
			"byteLength":10728,
			"byteOffset":53640,
			"target":34962
		},
		{
			"buffer":0,
			"byteLength":10728,
			"byteOffset":64368,
			"target":34962
		},
		{
			"buffer":0,
			"byteLength":10728,
			"byteOffset":75096,
			"target":34962
		},
		{
			"buffer":0,
			"byteLength":5364,
			"byteOffset":85824,
			"target":34962
		},
		{
			"buffer":0,
			"byteLength":10728,
			"byteOffset":91188,
			"target":34962
		},
		{
			"buffer":0,
			"byteLength":7092,
			"byteOffset":101916,
			"target":34963
		},
		{
			"buffer":0,
			"byteLength":9726744,
			"byteOffset":109008,
			"target":34962
		},
		{
			"buffer":0,
			"byteLength":9726744,
			"byteOffset":9835752,
			"target":34962
		},
		{
			"buffer":0,
			"byteLength":6484496,
			"byteOffset":19562496,
			"target":34962
		},
		{
			"buffer":0,
			"byteLength":6484496,
			"byteOffset":26046992,
			"target":34962
		},
		{
			"buffer":0,
			"byteLength":6484496,
			"byteOffset":32531488,
			"target":34962
		},
		{
			"buffer":0,
			"byteLength":6484496,
			"byteOffset":39015984,
			"target":34962
		},
		{
			"buffer":0,
			"byteLength":6484496,
			"byteOffset":45500480,
			"target":34962
		},
		{
			"buffer":0,
			"byteLength":3242248,
			"byteOffset":51984976,
			"target":34962
		},
		{
			"buffer":0,
			"byteLength":6484496,
			"byteOffset":55227224,
			"target":34962
		},
		{
			"buffer":0,
			"byteLength":3969996,
			"byteOffset":61711720,
			"target":34963
		},
		{
			"buffer":0,
			"byteLength":444,
			"byteOffset":65681716,
			"target":34962
		},
		{
			"buffer":0,
			"byteLength":148,
			"byteOffset":65682160,
			"target":34962
		},
		{
			"buffer":0,
			"byteLength":132,
			"byteOffset":65682308,
			"target":34963
		}
	],
	"samplers":[
		{
			"magFilter":9729,
			"minFilter":9987
		}
	],
	"buffers":[
		{
			"byteLength":65682440,
			"uri":"sesc-museum.bin"
		}
	]
}
