{
	"asset":{
		"generator":"Khronos glTF Blender I/O v4.4.55",
		"version":"2.0"
	},
	"scene":0,
	"scenes":[
		{
			"name":"Scene",
			"nodes":[
				0
			]
		}
	],
	"nodes":[
		{
			"mesh":0,
			"name":"MESC_Museum"
		}
	],
	"materials":[
		{
			"doubleSided":true,
			"name":"MESC-Textured",
			"normalTexture":{
				"index":0,
				"texCoord":3
			},
			"occlusionTexture":{
				"index":1,
				"texCoord":1
			},
			"pbrMetallicRoughness":{
				"baseColorTexture":{
					"index":2,
					"texCoord":3
				},
				"metallicRoughnessTexture":{
					"index":1,
					"texCoord":3
				}
			}
		},
		{
			"doubleSided":true,
			"name":"ColorAtlas_02",
			"occlusionTexture":{
				"index":3,
				"texCoord":1
			},
			"pbrMetallicRoughness":{
				"baseColorTexture":{
					"index":4
				},
				"metallicRoughnessTexture":{
					"index":5,
					"texCoord":2
				}
			}
		},
		{
			"doubleSided":true,
			"name":"ColorAtlas_01",
			"occlusionTexture":{
				"index":6,
				"texCoord":1
			},
			"pbrMetallicRoughness":{
				"baseColorTexture":{
					"index":7
				},
				"metallicRoughnessTexture":{
					"index":8,
					"texCoord":2
				}
			}
		}
	],
	"meshes":[
		{
			"name":"Maquete MESC - Miniatura.031",
			"primitives":[
				{
					"attributes":{
						"POSITION":0,
						"NORMAL":1,
						"TEXCOORD_0":2,
						"TEXCOORD_1":3,
						"TEXCOORD_2":4,
						"TEXCOORD_3":5
					},
					"indices":6,
					"material":0
				},
				{
					"attributes":{
						"POSITION":7,
						"NORMAL":8,
						"TEXCOORD_0":9,
						"TEXCOORD_1":10,
						"TEXCOORD_2":11,
						"TEXCOORD_3":12
					},
					"indices":13,
					"material":1
				},
				{
					"attributes":{
						"POSITION":14,
						"NORMAL":15,
						"TEXCOORD_0":16,
						"TEXCOORD_1":17,
						"TEXCOORD_2":18,
						"TEXCOORD_3":19
					},
					"indices":20,
					"material":2
				},
				{
					"attributes":{
						"POSITION":21
					},
					"indices":22,
					"material":0,
					"mode":1
				}
			]
		}
	],
	"textures":[
		{
			"sampler":0,
			"source":0
		},
		{
			"sampler":0,
			"source":1
		},
		{
			"sampler":0,
			"source":2
		},
		{
			"sampler":0,
			"source":3
		},
		{
			"sampler":0,
			"source":4
		},
		{
			"sampler":0,
			"source":5
		},
		{
			"sampler":0,
			"source":6
		},
		{
			"sampler":0,
			"source":4
		},
		{
			"sampler":0,
			"source":5
		}
	],
	"images":[
		{
			"mimeType":"image/png",
			"name":"Maquete MESC - Miniatura",
			"uri":"Maquete%20MESC%20-%20Miniatura.png"
		},
		{
			"mimeType":"image/png",
			"name":"MESC_Museum_lightmap-Maquete MESC - Miniatura-Maquete MESC - Miniatura",
			"uri":"MESC_Museum_lightmap-Maquete%20MESC%20-%20Miniatura-Maquete%20MESC%20-%20Miniatura.png"
		},
		{
			"mimeType":"image/png",
			"name":"Maquete MESC - Miniatura",
			"uri":"Maquete%20MESC%20-%20Miniatura-1.png"
		},
		{
			"mimeType":"image/png",
			"name":"MESC_Museum.001_lightmap",
			"uri":"MESC_Museum_001_lightmap.png"
		},
		{
			"mimeType":"image/png",
			"name":"AtlasColorTexture",
			"uri":"AtlasColorTexture.png"
		},
		{
			"mimeType":"image/png",
			"name":"AtlasGrayTexture",
			"uri":"AtlasGrayTexture.png"
		},
		{
			"mimeType":"image/png",
			"name":"MESC_Museum.002_lightmap",
			"uri":"MESC_Museum_002_lightmap.png"
		}
	],
	"accessors":[
		{
			"bufferView":0,
			"componentType":5126,
			"count":1842,
			"max":[
				3.594911575317383,
				2.976266384124756,
				1.7694690227508545
			],
			"min":[
				-4.293123722076416,
				0.016471020877361298,
				-1.7807470560073853
			],
			"type":"VEC3"
		},
		{
			"bufferView":1,
			"componentType":5126,
			"count":1842,
			"type":"VEC3"
		},
		{
			"bufferView":2,
			"componentType":5126,
			"count":1842,
			"type":"VEC2"
		},
		{
			"bufferView":3,
			"componentType":5126,
			"count":1842,
			"type":"VEC2"
		},
		{
			"bufferView":4,
			"componentType":5126,
			"count":1842,
			"type":"VEC2"
		},
		{
			"bufferView":5,
			"componentType":5126,
			"count":1842,
			"type":"VEC2"
		},
		{
			"bufferView":6,
			"componentType":5123,
			"count":5220,
			"type":"SCALAR"
		},
		{
			"bufferView":7,
			"componentType":5126,
			"count":160627,
			"max":[
				3.9016876220703125,
				2.950911521911621,
				2.073425531387329
			],
			"min":[
				-4.274517059326172,
				0.016470998525619507,
				-2.0865063667297363
			],
			"type":"VEC3"
		},
		{
			"bufferView":8,
			"componentType":5126,
			"count":160627,
			"type":"VEC3"
		},
		{
			"bufferView":9,
			"componentType":5126,
			"count":160627,
			"type":"VEC2"
		},
		{
			"bufferView":10,
			"componentType":5126,
			"count":160627,
			"type":"VEC2"
		},
		{
			"bufferView":11,
			"componentType":5126,
			"count":160627,
			"type":"VEC2"
		},
		{
			"bufferView":12,
			"componentType":5126,
			"count":160627,
			"type":"VEC2"
		},
		{
			"bufferView":13,
			"componentType":5125,
			"count":214218,
			"type":"SCALAR"
		},
		{
			"bufferView":14,
			"componentType":5126,
			"count":259922,
			"max":[
				3.9424407482147217,
				2.9971115589141846,
				2.114178419113159
			],
			"min":[
				-4.313225746154785,
				-7.178085184023075e-07,
				-2.1272592544555664
			],
			"type":"VEC3"
		},
		{
			"bufferView":15,
			"componentType":5126,
			"count":259922,
			"type":"VEC3"
		},
		{
			"bufferView":16,
			"componentType":5126,
			"count":259922,
			"type":"VEC2"
		},
		{
			"bufferView":17,
			"componentType":5126,
			"count":259922,
			"type":"VEC2"
		},
		{
			"bufferView":18,
			"componentType":5126,
			"count":259922,
			"type":"VEC2"
		},
		{
			"bufferView":19,
			"componentType":5126,
			"count":259922,
			"type":"VEC2"
		},
		{
			"bufferView":20,
			"componentType":5125,
			"count":311880,
			"type":"SCALAR"
		},
		{
			"bufferView":21,
			"componentType":5126,
			"count":16,
			"max":[
				1.465307593345642,
				2.9719114303588867,
				2.1141395568847656
			],
			"min":[
				-4.085048675537109,
				2.453312397003174,
				-2.1253437995910645
			],
			"type":"VEC3"
		},
		{
			"bufferView":22,
			"componentType":5123,
			"count":16,
			"type":"SCALAR"
		}
	],
	"bufferViews":[
		{
			"buffer":0,
			"byteLength":22104,
			"byteOffset":0,
			"target":34962
		},
		{
			"buffer":0,
			"byteLength":22104,
			"byteOffset":22104,
			"target":34962
		},
		{
			"buffer":0,
			"byteLength":14736,
			"byteOffset":44208,
			"target":34962
		},
		{
			"buffer":0,
			"byteLength":14736,
			"byteOffset":58944,
			"target":34962
		},
		{
			"buffer":0,
			"byteLength":14736,
			"byteOffset":73680,
			"target":34962
		},
		{
			"buffer":0,
			"byteLength":14736,
			"byteOffset":88416,
			"target":34962
		},
		{
			"buffer":0,
			"byteLength":10440,
			"byteOffset":103152,
			"target":34963
		},
		{
			"buffer":0,
			"byteLength":1927524,
			"byteOffset":113592,
			"target":34962
		},
		{
			"buffer":0,
			"byteLength":1927524,
			"byteOffset":2041116,
			"target":34962
		},
		{
			"buffer":0,
			"byteLength":1285016,
			"byteOffset":3968640,
			"target":34962
		},
		{
			"buffer":0,
			"byteLength":1285016,
			"byteOffset":5253656,
			"target":34962
		},
		{
			"buffer":0,
			"byteLength":1285016,
			"byteOffset":6538672,
			"target":34962
		},
		{
			"buffer":0,
			"byteLength":1285016,
			"byteOffset":7823688,
			"target":34962
		},
		{
			"buffer":0,
			"byteLength":856872,
			"byteOffset":9108704,
			"target":34963
		},
		{
			"buffer":0,
			"byteLength":3119064,
			"byteOffset":9965576,
			"target":34962
		},
		{
			"buffer":0,
			"byteLength":3119064,
			"byteOffset":13084640,
			"target":34962
		},
		{
			"buffer":0,
			"byteLength":2079376,
			"byteOffset":16203704,
			"target":34962
		},
		{
			"buffer":0,
			"byteLength":2079376,
			"byteOffset":18283080,
			"target":34962
		},
		{
			"buffer":0,
			"byteLength":2079376,
			"byteOffset":20362456,
			"target":34962
		},
		{
			"buffer":0,
			"byteLength":2079376,
			"byteOffset":22441832,
			"target":34962
		},
		{
			"buffer":0,
			"byteLength":1247520,
			"byteOffset":24521208,
			"target":34963
		},
		{
			"buffer":0,
			"byteLength":192,
			"byteOffset":25768728,
			"target":34962
		},
		{
			"buffer":0,
			"byteLength":32,
			"byteOffset":25768920,
			"target":34963
		}
	],
	"samplers":[
		{
			"magFilter":9729,
			"minFilter":9987
		}
	],
	"buffers":[
		{
			"byteLength":25768952,
			"uri":"dioramas.bin"
		}
	]
}
