{
	"asset":{
		"generator":"Khronos glTF Blender I/O v5.0.21",
		"version":"2.0"
	},
	"scene":0,
	"scenes":[
		{
			"name":"Scene",
			"nodes":[
				0,
				1,
				2
			]
		}
	],
	"nodes":[
		{
			"mesh":0,
			"name":"SESC-Island",
			"rotation":[
				0,
				-0.7071068286895752,
				0,
				0.7071068286895752
			],
			"scale":[
				0.003000000026077032,
				0.003000000026077032,
				0.003000000026077032
			],
			"translation":[
				0,
				-0.587225615978241,
				0
			]
		},
		{
			"mesh":1,
			"name":"SESC-Island.002",
			"rotation":[
				0,
				-0.7071068286895752,
				0,
				0.7071068286895752
			],
			"scale":[
				0.003000000026077032,
				0.003000000026077032,
				0.003000000026077032
			],
			"translation":[
				0,
				-0.587225615978241,
				0
			]
		},
		{
			"mesh":2,
			"name":"SESC-Island.001_Aggregated",
			"rotation":[
				0,
				-0.7071068286895752,
				0,
				0.7071068286895752
			],
			"scale":[
				0.003000000026077032,
				0.003000000026077032,
				0.003000000026077032
			],
			"translation":[
				0,
				-0.587225615978241,
				0
			]
		}
	],
	"materials":[
		{
			"alphaMode":"BLEND",
			"doubleSided":true,
			"name":"Material.020",
			"pbrMetallicRoughness":{
				"baseColorFactor":[
					0.015162442810833454,
					0.19811604917049408,
					0.19561490416526794,
					0.800000011920929
				],
				"metallicFactor":0,
				"roughnessFactor":0.05000000074505806
			}
		},
		{
			"alphaMode":"BLEND",
			"doubleSided":true,
			"name":"Material.023",
			"pbrMetallicRoughness":{
				"baseColorFactor":[
					0.16308917105197906,
					0.18551795184612274,
					0.19811604917049408,
					0.20000000298023224
				],
				"metallicFactor":0,
				"roughnessFactor":0.05000000074505806
			}
		},
		{
			"doubleSided":true,
			"name":"toughened_glass",
			"normalTexture":{
				"index":0,
				"scale":3
			},
			"pbrMetallicRoughness":{
				"baseColorFactor":[
					0.014354318380355835,
					0.032622966915369034,
					0.151322603225708,
					1
				],
				"metallicFactor":0,
				"roughnessFactor":0.10000000149011612
			}
		},
		{
			"doubleSided":true,
			"name":"SESC-Island.001_Aggregated_Material",
			"pbrMetallicRoughness":{
				"baseColorTexture":{
					"index":1,
					"texCoord":1
				},
				"metallicFactor":0,
				"roughnessFactor":0.5
			}
		}
	],
	"meshes":[
		{
			"name":"Mesh.003",
			"primitives":[
				{
					"attributes":{
						"POSITION":0,
						"NORMAL":1,
						"TEXCOORD_0":2,
						"TEXCOORD_1":3
					},
					"indices":4,
					"material":0
				},
				{
					"attributes":{
						"POSITION":5,
						"NORMAL":6,
						"TEXCOORD_0":7,
						"TEXCOORD_1":8
					},
					"indices":9,
					"material":1
				}
			]
		},
		{
			"name":"Mesh.008",
			"primitives":[
				{
					"attributes":{
						"POSITION":10,
						"NORMAL":11,
						"TEXCOORD_0":12
					},
					"indices":13,
					"material":2
				}
			]
		},
		{
			"name":"Mesh.009",
			"primitives":[
				{
					"attributes":{
						"POSITION":14,
						"NORMAL":15,
						"TEXCOORD_0":16,
						"TEXCOORD_1":17
					},
					"indices":18,
					"material":3
				}
			]
		}
	],
	"textures":[
		{
			"sampler":0,
			"source":0
		},
		{
			"sampler":0,
			"source":1
		}
	],
	"images":[
		{
			"mimeType":"image/png",
			"name":"toughened_glass_Toughened_Glass_normal",
			"uri":"toughened_glass_Toughened_Glass_normal.png"
		},
		{
			"mimeType":"image/png",
			"name":"SESC-Island-texture-2",
			"uri":"SESC-Island-texture-2.png"
		}
	],
	"accessors":[
		{
			"bufferView":0,
			"componentType":5126,
			"count":120,
			"max":[
				550.0046997070312,
				706.7201538085938,
				1500.628662109375
			],
			"min":[
				-549.9953002929688,
				-0.9318389892578125,
				-1500.730712890625
			],
			"type":"VEC3"
		},
		{
			"bufferView":1,
			"componentType":5126,
			"count":120,
			"type":"VEC3"
		},
		{
			"bufferView":2,
			"componentType":5126,
			"count":120,
			"type":"VEC2"
		},
		{
			"bufferView":3,
			"componentType":5126,
			"count":120,
			"type":"VEC2"
		},
		{
			"bufferView":4,
			"componentType":5123,
			"count":600,
			"type":"SCALAR"
		},
		{
			"bufferView":5,
			"componentType":5126,
			"count":40,
			"max":[
				549.7792358398438,
				706.7201538085938,
				1500.628662109375
			],
			"min":[
				-549.7407836914062,
				-0.3662261962890625,
				-1500.730712890625
			],
			"type":"VEC3"
		},
		{
			"bufferView":6,
			"componentType":5126,
			"count":40,
			"type":"VEC3"
		},
		{
			"bufferView":7,
			"componentType":5126,
			"count":40,
			"type":"VEC2"
		},
		{
			"bufferView":8,
			"componentType":5126,
			"count":40,
			"type":"VEC2"
		},
		{
			"bufferView":9,
			"componentType":5123,
			"count":60,
			"type":"SCALAR"
		},
		{
			"bufferView":10,
			"componentType":5126,
			"count":20,
			"max":[
				550.0046997070312,
				712.7660522460938,
				1499.956298828125
			],
			"min":[
				-549.9953002929688,
				706.7660522460938,
				-1500.043701171875
			],
			"type":"VEC3"
		},
		{
			"bufferView":11,
			"componentType":5126,
			"count":20,
			"type":"VEC3"
		},
		{
			"bufferView":12,
			"componentType":5126,
			"count":20,
			"type":"VEC2"
		},
		{
			"bufferView":13,
			"componentType":5123,
			"count":108,
			"type":"SCALAR"
		},
		{
			"bufferView":14,
			"componentType":5126,
			"count":94820,
			"max":[
				514.9122924804688,
				809.528564453125,
				1500.052490234375
			],
			"min":[
				-549.9183349609375,
				712.737548828125,
				-1452.593017578125
			],
			"type":"VEC3"
		},
		{
			"bufferView":15,
			"componentType":5126,
			"count":94820,
			"type":"VEC3"
		},
		{
			"bufferView":16,
			"componentType":5126,
			"count":94820,
			"type":"VEC2"
		},
		{
			"bufferView":17,
			"componentType":5126,
			"count":94820,
			"type":"VEC2"
		},
		{
			"bufferView":18,
			"componentType":5125,
			"count":544302,
			"type":"SCALAR"
		}
	],
	"bufferViews":[
		{
			"buffer":0,
			"byteLength":1440,
			"byteOffset":0,
			"target":34962
		},
		{
			"buffer":0,
			"byteLength":1440,
			"byteOffset":1440,
			"target":34962
		},
		{
			"buffer":0,
			"byteLength":960,
			"byteOffset":2880,
			"target":34962
		},
		{
			"buffer":0,
			"byteLength":960,
			"byteOffset":3840,
			"target":34962
		},
		{
			"buffer":0,
			"byteLength":1200,
			"byteOffset":4800,
			"target":34963
		},
		{
			"buffer":0,
			"byteLength":480,
			"byteOffset":6000,
			"target":34962
		},
		{
			"buffer":0,
			"byteLength":480,
			"byteOffset":6480,
			"target":34962
		},
		{
			"buffer":0,
			"byteLength":320,
			"byteOffset":6960,
			"target":34962
		},
		{
			"buffer":0,
			"byteLength":320,
			"byteOffset":7280,
			"target":34962
		},
		{
			"buffer":0,
			"byteLength":120,
			"byteOffset":7600,
			"target":34963
		},
		{
			"buffer":0,
			"byteLength":240,
			"byteOffset":7720,
			"target":34962
		},
		{
			"buffer":0,
			"byteLength":240,
			"byteOffset":7960,
			"target":34962
		},
		{
			"buffer":0,
			"byteLength":160,
			"byteOffset":8200,
			"target":34962
		},
		{
			"buffer":0,
			"byteLength":216,
			"byteOffset":8360,
			"target":34963
		},
		{
			"buffer":0,
			"byteLength":1137840,
			"byteOffset":8576,
			"target":34962
		},
		{
			"buffer":0,
			"byteLength":1137840,
			"byteOffset":1146416,
			"target":34962
		},
		{
			"buffer":0,
			"byteLength":758560,
			"byteOffset":2284256,
			"target":34962
		},
		{
			"buffer":0,
			"byteLength":758560,
			"byteOffset":3042816,
			"target":34962
		},
		{
			"buffer":0,
			"byteLength":2177208,
			"byteOffset":3801376,
			"target":34963
		}
	],
	"samplers":[
		{
			"magFilter":9729,
			"minFilter":9987
		}
	],
	"buffers":[
		{
			"byteLength":5978584,
			"uri":"island.bin"
		}
	]
}
