{
	"asset":{
		"generator":"Khronos glTF Blender I/O v5.0.21",
		"version":"2.0"
	},
	"scene":0,
	"scenes":[
		{
			"name":"Scene",
			"nodes":[
				0,
				1,
				2
			]
		}
	],
	"nodes":[
		{
			"mesh":0,
			"name":"Zenic_ColorAtlas",
			"rotation":[
				-0.5000001788139343,
				0.4999999403953552,
				0.5000000596046448,
				0.4999999403953552
			],
			"scale":[
				0.003412849735468626,
				0.0034128499682992697,
				0.0034128499682992697
			],
			"translation":[
				-0.0062596797943115234,
				-0.7404508590698242,
				1.199662685394287
			]
		},
		{
			"mesh":1,
			"name":"Zenic_Cloth",
			"rotation":[
				-0.5000001788139343,
				0.4999999403953552,
				0.5000000596046448,
				0.4999999403953552
			],
			"scale":[
				0.003412849735468626,
				0.0034128499682992697,
				0.0034128499682992697
			],
			"translation":[
				-0.0062596797943115234,
				-0.7404508590698242,
				1.199662685394287
			]
		},
		{
			"mesh":2,
			"name":"Zenic_Wood",
			"rotation":[
				-0.5000001788139343,
				0.4999999403953552,
				0.5000000596046448,
				0.4999999403953552
			],
			"scale":[
				0.003412849735468626,
				0.0034128499682992697,
				0.0034128499682992697
			],
			"translation":[
				-0.0062596797943115234,
				-0.7404508590698242,
				1.199662685394287
			]
		}
	],
	"materials":[
		{
			"doubleSided":true,
			"name":"Atlasflow_03",
			"occlusionTexture":{
				"index":0,
				"texCoord":1
			},
			"pbrMetallicRoughness":{
				"baseColorTexture":{
					"index":1
				},
				"metallicRoughnessTexture":{
					"index":2,
					"texCoord":2
				}
			}
		},
		{
			"doubleSided":true,
			"name":"Paper_White",
			"occlusionTexture":{
				"index":3,
				"texCoord":1
			},
			"pbrMetallicRoughness":{
				"baseColorTexture":{
					"index":4
				},
				"metallicFactor":0,
				"roughnessFactor":0.5
			}
		},
		{
			"doubleSided":true,
			"name":"Bamboo_Light_-_Semigloss",
			"occlusionTexture":{
				"index":5,
				"texCoord":1
			},
			"pbrMetallicRoughness":{
				"baseColorTexture":{
					"index":6
				},
				"metallicFactor":0,
				"roughnessFactor":0.6000000238418579
			}
		}
	],
	"meshes":[
		{
			"name":"Object_12",
			"primitives":[
				{
					"attributes":{
						"POSITION":0,
						"NORMAL":1,
						"TEXCOORD_0":2,
						"TEXCOORD_1":3,
						"TEXCOORD_2":4
					},
					"indices":5,
					"material":0
				}
			]
		},
		{
			"name":"Object_12.001",
			"primitives":[
				{
					"attributes":{
						"POSITION":6,
						"NORMAL":7,
						"TEXCOORD_0":8,
						"TEXCOORD_1":9
					},
					"indices":10,
					"material":1
				}
			]
		},
		{
			"name":"Object_12.003",
			"primitives":[
				{
					"attributes":{
						"POSITION":11,
						"NORMAL":12,
						"TEXCOORD_0":13,
						"TEXCOORD_1":14
					},
					"indices":15,
					"material":2
				}
			]
		}
	],
	"textures":[
		{
			"sampler":0,
			"source":0
		},
		{
			"sampler":0,
			"source":1
		},
		{
			"sampler":0,
			"source":2
		},
		{
			"sampler":0,
			"source":3
		},
		{
			"sampler":0,
			"source":4
		},
		{
			"sampler":0,
			"source":5
		},
		{
			"sampler":0,
			"source":6
		}
	],
	"images":[
		{
			"mimeType":"image/png",
			"name":"Zenic_ColorAtlas_lightmap",
			"uri":"Zenic_ColorAtlas_lightmap.png"
		},
		{
			"mimeType":"image/png",
			"name":"AtlasColorTexture",
			"uri":"AtlasColorTexture.png"
		},
		{
			"mimeType":"image/png",
			"name":"AtlasGrayTexture",
			"uri":"AtlasGrayTexture.png"
		},
		{
			"mimeType":"image/png",
			"name":"Zenic_Cloth_lightmap",
			"uri":"Zenic_Cloth_lightmap.png"
		},
		{
			"mimeType":"image/jpeg",
			"name":"Image_1",
			"uri":"Image_1.jpg"
		},
		{
			"mimeType":"image/png",
			"name":"Zenic_Wood_lightmap",
			"uri":"Zenic_Wood_lightmap.png"
		},
		{
			"mimeType":"image/png",
			"name":"texture_holder_temp_Aggregated_Material_diffuse",
			"uri":"texture_holder_temp_Aggregated_Material_diffuse.png"
		}
	],
	"accessors":[
		{
			"bufferView":0,
			"componentType":5126,
			"count":19822,
			"max":[
				1217.7667236328125,
				365.0122375488281,
				891.6913452148438
			],
			"min":[
				-377.5824890136719,
				-365.0132751464844,
				-0.005012241192162037
			],
			"type":"VEC3"
		},
		{
			"bufferView":1,
			"componentType":5126,
			"count":19822,
			"type":"VEC3"
		},
		{
			"bufferView":2,
			"componentType":5126,
			"count":19822,
			"type":"VEC2"
		},
		{
			"bufferView":3,
			"componentType":5126,
			"count":19822,
			"type":"VEC2"
		},
		{
			"bufferView":4,
			"componentType":5126,
			"count":19822,
			"type":"VEC2"
		},
		{
			"bufferView":5,
			"componentType":5123,
			"count":39456,
			"type":"SCALAR"
		},
		{
			"bufferView":6,
			"componentType":5126,
			"count":1874,
			"max":[
				1158.207275390625,
				280.0001220703125,
				696.2449951171875
			],
			"min":[
				-397.43109130859375,
				-279.9999694824219,
				239.34783935546875
			],
			"type":"VEC3"
		},
		{
			"bufferView":7,
			"componentType":5126,
			"count":1874,
			"type":"VEC3"
		},
		{
			"bufferView":8,
			"componentType":5126,
			"count":1874,
			"type":"VEC2"
		},
		{
			"bufferView":9,
			"componentType":5126,
			"count":1874,
			"type":"VEC2"
		},
		{
			"bufferView":10,
			"componentType":5123,
			"count":3744,
			"type":"SCALAR"
		},
		{
			"bufferView":11,
			"componentType":5126,
			"count":9538,
			"max":[
				1223.099609375,
				365.747802734375,
				751.4660034179688
			],
			"min":[
				-451.1479797363281,
				-365.9441223144531,
				0.2064419984817505
			],
			"type":"VEC3"
		},
		{
			"bufferView":12,
			"componentType":5126,
			"count":9538,
			"type":"VEC3"
		},
		{
			"bufferView":13,
			"componentType":5126,
			"count":9538,
			"type":"VEC2"
		},
		{
			"bufferView":14,
			"componentType":5126,
			"count":9538,
			"type":"VEC2"
		},
		{
			"bufferView":15,
			"componentType":5123,
			"count":19416,
			"type":"SCALAR"
		}
	],
	"bufferViews":[
		{
			"buffer":0,
			"byteLength":237864,
			"byteOffset":0,
			"target":34962
		},
		{
			"buffer":0,
			"byteLength":237864,
			"byteOffset":237864,
			"target":34962
		},
		{
			"buffer":0,
			"byteLength":158576,
			"byteOffset":475728,
			"target":34962
		},
		{
			"buffer":0,
			"byteLength":158576,
			"byteOffset":634304,
			"target":34962
		},
		{
			"buffer":0,
			"byteLength":158576,
			"byteOffset":792880,
			"target":34962
		},
		{
			"buffer":0,
			"byteLength":78912,
			"byteOffset":951456,
			"target":34963
		},
		{
			"buffer":0,
			"byteLength":22488,
			"byteOffset":1030368,
			"target":34962
		},
		{
			"buffer":0,
			"byteLength":22488,
			"byteOffset":1052856,
			"target":34962
		},
		{
			"buffer":0,
			"byteLength":14992,
			"byteOffset":1075344,
			"target":34962
		},
		{
			"buffer":0,
			"byteLength":14992,
			"byteOffset":1090336,
			"target":34962
		},
		{
			"buffer":0,
			"byteLength":7488,
			"byteOffset":1105328,
			"target":34963
		},
		{
			"buffer":0,
			"byteLength":114456,
			"byteOffset":1112816,
			"target":34962
		},
		{
			"buffer":0,
			"byteLength":114456,
			"byteOffset":1227272,
			"target":34962
		},
		{
			"buffer":0,
			"byteLength":76304,
			"byteOffset":1341728,
			"target":34962
		},
		{
			"buffer":0,
			"byteLength":76304,
			"byteOffset":1418032,
			"target":34962
		},
		{
			"buffer":0,
			"byteLength":38832,
			"byteOffset":1494336,
			"target":34963
		}
	],
	"samplers":[
		{
			"magFilter":9729,
			"minFilter":9987
		}
	],
	"buffers":[
		{
			"byteLength":1533168,
			"uri":"zenic.bin"
		}
	]
}
