{
	"asset":{
		"generator":"Khronos glTF Blender I/O v4.4.55",
		"version":"2.0"
	},
	"scene":0,
	"scenes":[
		{
			"name":"Scene",
			"nodes":[
				0
			]
		}
	],
	"nodes":[
		{
			"mesh":0,
			"name":"SESC-Island",
			"rotation":[
				0,
				-0.7071068286895752,
				0,
				0.7071068286895752
			],
			"scale":[
				0.003000000026077032,
				0.003000000026077032,
				0.003000000026077032
			],
			"translation":[
				0,
				-0.587225615978241,
				0
			]
		}
	],
	"materials":[
		{
			"doubleSided":true,
			"name":"toughened_glass.001",
			"normalTexture":{
				"index":0,
				"scale":3
			},
			"pbrMetallicRoughness":{
				"baseColorFactor":[
					0.02804499864578247,
					0.11399021744728088,
					0.02283719927072525,
					1
				],
				"metallicFactor":0.30000001192092896,
				"roughnessFactor":0.20000000298023224
			}
		},
		{
			"doubleSided":true,
			"name":"toughened_glass",
			"normalTexture":{
				"index":1,
				"scale":3
			},
			"pbrMetallicRoughness":{
				"baseColorFactor":[
					0.029921969398856163,
					0.07361791282892227,
					0.3731447756290436,
					1
				],
				"metallicFactor":0.30000001192092896,
				"roughnessFactor":0.10000000149011612
			}
		},
		{
			"alphaMode":"BLEND",
			"doubleSided":true,
			"name":"Material.009",
			"pbrMetallicRoughness":{
				"baseColorFactor":[
					0.015162442810833454,
					0.19811604917049408,
					0.19561490416526794,
					0.800000011920929
				],
				"metallicFactor":0.20000000298023224,
				"roughnessFactor":0.05000000074505806
			}
		},
		{
			"alphaMode":"BLEND",
			"doubleSided":true,
			"name":"Material.010",
			"pbrMetallicRoughness":{
				"baseColorFactor":[
					0.16308917105197906,
					0.18551795184612274,
					0.19811604917049408,
					0.20000000298023224
				],
				"metallicFactor":0.20000000298023224,
				"roughnessFactor":0.05000000074505806
			}
		}
	],
	"meshes":[
		{
			"name":"Mesh.001",
			"primitives":[
				{
					"attributes":{
						"POSITION":0,
						"NORMAL":1,
						"TEXCOORD_0":2
					},
					"indices":3,
					"material":0
				},
				{
					"attributes":{
						"POSITION":4,
						"NORMAL":5,
						"TEXCOORD_0":6
					},
					"indices":7,
					"material":1
				},
				{
					"attributes":{
						"POSITION":8,
						"NORMAL":9,
						"TEXCOORD_0":10
					},
					"indices":11,
					"material":2
				},
				{
					"attributes":{
						"POSITION":12,
						"NORMAL":13,
						"TEXCOORD_0":14
					},
					"indices":15,
					"material":3
				}
			]
		}
	],
	"textures":[
		{
			"sampler":0,
			"source":0
		},
		{
			"sampler":0,
			"source":0
		}
	],
	"images":[
		{
			"mimeType":"image/png",
			"name":"toughened_glass_Toughened_Glass_normal",
			"uri":"toughened_glass_Toughened_Glass_normal.png"
		}
	],
	"accessors":[
		{
			"bufferView":0,
			"componentType":5126,
			"count":94820,
			"max":[
				514.9122924804688,
				809.528564453125,
				1500.052490234375
			],
			"min":[
				-549.9183349609375,
				712.737548828125,
				-1452.593017578125
			],
			"type":"VEC3"
		},
		{
			"bufferView":1,
			"componentType":5126,
			"count":94820,
			"type":"VEC3"
		},
		{
			"bufferView":2,
			"componentType":5126,
			"count":94820,
			"type":"VEC2"
		},
		{
			"bufferView":3,
			"componentType":5125,
			"count":544302,
			"type":"SCALAR"
		},
		{
			"bufferView":4,
			"componentType":5126,
			"count":25,
			"max":[
				550.0046997070312,
				712.7660522460938,
				1499.956298828125
			],
			"min":[
				-549.9953002929688,
				706.7660522460938,
				-1500.043701171875
			],
			"type":"VEC3"
		},
		{
			"bufferView":5,
			"componentType":5126,
			"count":25,
			"type":"VEC3"
		},
		{
			"bufferView":6,
			"componentType":5126,
			"count":25,
			"type":"VEC2"
		},
		{
			"bufferView":7,
			"componentType":5123,
			"count":108,
			"type":"SCALAR"
		},
		{
			"bufferView":8,
			"componentType":5126,
			"count":120,
			"max":[
				550.0046997070312,
				706.7201538085938,
				1500.628662109375
			],
			"min":[
				-549.9953002929688,
				-0.93182373046875,
				-1500.730712890625
			],
			"type":"VEC3"
		},
		{
			"bufferView":9,
			"componentType":5126,
			"count":120,
			"type":"VEC3"
		},
		{
			"bufferView":10,
			"componentType":5126,
			"count":120,
			"type":"VEC2"
		},
		{
			"bufferView":11,
			"componentType":5123,
			"count":600,
			"type":"SCALAR"
		},
		{
			"bufferView":12,
			"componentType":5126,
			"count":40,
			"max":[
				549.7792358398438,
				706.7201538085938,
				1500.628662109375
			],
			"min":[
				-549.7407836914062,
				-0.3662109375,
				-1500.730712890625
			],
			"type":"VEC3"
		},
		{
			"bufferView":13,
			"componentType":5126,
			"count":40,
			"type":"VEC3"
		},
		{
			"bufferView":14,
			"componentType":5126,
			"count":40,
			"type":"VEC2"
		},
		{
			"bufferView":15,
			"componentType":5123,
			"count":60,
			"type":"SCALAR"
		}
	],
	"bufferViews":[
		{
			"buffer":0,
			"byteLength":1137840,
			"byteOffset":0,
			"target":34962
		},
		{
			"buffer":0,
			"byteLength":1137840,
			"byteOffset":1137840,
			"target":34962
		},
		{
			"buffer":0,
			"byteLength":758560,
			"byteOffset":2275680,
			"target":34962
		},
		{
			"buffer":0,
			"byteLength":2177208,
			"byteOffset":3034240,
			"target":34963
		},
		{
			"buffer":0,
			"byteLength":300,
			"byteOffset":5211448,
			"target":34962
		},
		{
			"buffer":0,
			"byteLength":300,
			"byteOffset":5211748,
			"target":34962
		},
		{
			"buffer":0,
			"byteLength":200,
			"byteOffset":5212048,
			"target":34962
		},
		{
			"buffer":0,
			"byteLength":216,
			"byteOffset":5212248,
			"target":34963
		},
		{
			"buffer":0,
			"byteLength":1440,
			"byteOffset":5212464,
			"target":34962
		},
		{
			"buffer":0,
			"byteLength":1440,
			"byteOffset":5213904,
			"target":34962
		},
		{
			"buffer":0,
			"byteLength":960,
			"byteOffset":5215344,
			"target":34962
		},
		{
			"buffer":0,
			"byteLength":1200,
			"byteOffset":5216304,
			"target":34963
		},
		{
			"buffer":0,
			"byteLength":480,
			"byteOffset":5217504,
			"target":34962
		},
		{
			"buffer":0,
			"byteLength":480,
			"byteOffset":5217984,
			"target":34962
		},
		{
			"buffer":0,
			"byteLength":320,
			"byteOffset":5218464,
			"target":34962
		},
		{
			"buffer":0,
			"byteLength":120,
			"byteOffset":5218784,
			"target":34963
		}
	],
	"samplers":[
		{
			"magFilter":9729,
			"minFilter":9987
		}
	],
	"buffers":[
		{
			"byteLength":5218904,
			"uri":"sesc-island.bin"
		}
	]
}
